{
    "asset" : {
        "generator" : "Khronos glTF Blender I/O v1.8.19",
        "version" : "2.0"
    },
    "scene" : 0,
    "scenes" : [
        {
            "name" : "Scene",
            "nodes" : [
                0
            ]
        }
    ],
    "nodes" : [
        {
            "mesh" : 0,
            "name" : "cat",
            "rotation" : [
                0.5,
                0.4999999701976776,
                -0.5000000596046448,
                0.4999999403953552
            ],
            "scale" : [
                0.019999999552965164,
                0.019999999552965164,
                0.019999999552965164
            ]
        }
    ],
    "materials" : [
        {
            "doubleSided" : true,
            "name" : "Mat.001",
            "pbrMetallicRoughness" : {
                "baseColorFactor" : [
                    0.8000000715255737,
                    0.631989598274231,
                    0.013567555695772171,
                    1
                ],
                "metallicFactor" : 0,
                "roughnessFactor" : 0.5
            }
        }
    ],
    "meshes" : [
        {
            "name" : "cat.001",
            "primitives" : [
                {
                    "attributes" : {
                        "POSITION" : 0,
                        "NORMAL" : 1,
                        "TANGENT" : 2,
                        "TEXCOORD_0" : 3
                    },
                    "indices" : 4,
                    "material" : 0
                }
            ]
        }
    ],
    "accessors" : [
        {
            "bufferView" : 0,
            "componentType" : 5126,
            "count" : 6246,
            "max" : [
                277.95947265625,
                72.22314453125,
                -7.148787975311279
            ],
            "min" : [
                -484.0404357910156,
                -72.22100067138672,
                -338.3736572265625
            ],
            "type" : "VEC3"
        },
        {
            "bufferView" : 1,
            "componentType" : 5126,
            "count" : 6246,
            "type" : "VEC3"
        },
        {
            "bufferView" : 2,
            "componentType" : 5126,
            "count" : 6246,
            "type" : "VEC4"
        },
        {
            "bufferView" : 3,
            "componentType" : 5126,
            "count" : 6246,
            "type" : "VEC2"
        },
        {
            "bufferView" : 4,
            "componentType" : 5123,
            "count" : 6246,
            "type" : "SCALAR"
        }
    ],
    "bufferViews" : [
        {
            "buffer" : 0,
            "byteLength" : 74952,
            "byteOffset" : 0
        },
        {
            "buffer" : 0,
            "byteLength" : 74952,
            "byteOffset" : 74952
        },
        {
            "buffer" : 0,
            "byteLength" : 99936,
            "byteOffset" : 149904
        },
        {
            "buffer" : 0,
            "byteLength" : 49968,
            "byteOffset" : 249840
        },
        {
            "buffer" : 0,
            "byteLength" : 12492,
            "byteOffset" : 299808
        }
    ],
    "buffers" : [
        {
            "byteLength" : 312300,
            "uri" : "data:application/octet-stream;base64,"
        }
    ]
}
