{
    "asset" : {
        "generator" : "Khronos glTF Blender I/O v1.8.19",
        "version" : "2.0"
    },
    "scene" : 0,
    "scenes" : [
        {
            "name" : "Scene",
            "nodes" : [
                0
            ]
        }
    ],
    "nodes" : [
        {
            "mesh" : 0,
            "name" : "Cylinder.001",
            "rotation" : [
                0.5,
                -0.5,
                0.5,
                0.4999999701976776
            ],
            "scale" : [
                1.4341436624526978,
                0.21452432870864868,
                1.4341436624526978
            ],
            "translation" : [
                0.7161712646484375,
                -0.018753811717033386,
                4.68346643447876
            ]
        }
    ],
    "materials" : [
        {
            "doubleSided" : true,
            "name" : "Material.001",
            "pbrMetallicRoughness" : {
                "baseColorFactor" : [
                    0.8000000715255737,
                    0,
                    0.0008478878880850971,
                    1
                ],
                "metallicFactor" : 0,
                "roughnessFactor" : 0.5
            }
        },
        {
            "doubleSided" : true,
            "name" : "Material.002",
            "pbrMetallicRoughness" : {
                "baseColorFactor" : [
                    0,
                    0,
                    0,
                    1
                ],
                "metallicFactor" : 0,
                "roughnessFactor" : 0.6739130616188049
            }
        },
        {
            "doubleSided" : true,
            "emissiveFactor" : [
                1,
                0.14814820885658264,
                0.8243913054466248
            ],
            "name" : "bake light",
            "pbrMetallicRoughness" : {}
        },
        {
            "doubleSided" : true,
            "emissiveFactor" : [
                1,
                0.45945504307746887,
                0.04298461228609085
            ],
            "name" : "front light",
            "pbrMetallicRoughness" : {}
        },
        {
            "doubleSided" : true,
            "name" : "Material.003",
            "pbrMetallicRoughness" : {
                "baseColorFactor" : [
                    0.43854159116744995,
                    0.43854159116744995,
                    0.43854159116744995,
                    1
                ],
                "metallicFactor" : 0,
                "roughnessFactor" : 0.5
            }
        }
    ],
    "meshes" : [
        {
            "name" : "Cylinder.005",
            "primitives" : [
                {
                    "attributes" : {
                        "POSITION" : 0,
                        "NORMAL" : 1,
                        "TEXCOORD_0" : 2
                    },
                    "indices" : 3,
                    "material" : 0
                },
                {
                    "attributes" : {
                        "POSITION" : 4,
                        "NORMAL" : 5,
                        "TEXCOORD_0" : 6
                    },
                    "indices" : 7,
                    "material" : 1
                },
                {
                    "attributes" : {
                        "POSITION" : 8,
                        "NORMAL" : 9,
                        "TEXCOORD_0" : 10
                    },
                    "indices" : 11,
                    "material" : 2
                },
                {
                    "attributes" : {
                        "POSITION" : 12,
                        "NORMAL" : 13,
                        "TEXCOORD_0" : 14
                    },
                    "indices" : 15,
                    "material" : 3
                },
                {
                    "attributes" : {
                        "POSITION" : 16,
                        "NORMAL" : 17,
                        "TEXCOORD_0" : 18
                    },
                    "indices" : 19,
                    "material" : 4
                }
            ]
        }
    ],
    "accessors" : [
        {
            "bufferView" : 0,
            "componentType" : 5126,
            "count" : 8248,
            "max" : [
                1.8461169004440308,
                11.78016471862793,
                0.43027886748313904
            ],
            "min" : [
                -7.082244396209717,
                -12.04039192199707,
                -4.33884859085083
            ],
            "type" : "VEC3"
        },
        {
            "bufferView" : 1,
            "componentType" : 5126,
            "count" : 8248,
            "type" : "VEC3"
        },
        {
            "bufferView" : 2,
            "componentType" : 5126,
            "count" : 8248,
            "type" : "VEC2"
        },
        {
            "bufferView" : 3,
            "componentType" : 5123,
            "count" : 19434,
            "type" : "SCALAR"
        },
        {
            "bufferView" : 4,
            "componentType" : 5126,
            "count" : 1689,
            "max" : [
                1.0000001192092896,
                12.086017608642578,
                1.0000001192092896
            ],
            "min" : [
                -6.916175842285156,
                -12.346244812011719,
                -4.136786937713623
            ],
            "type" : "VEC3"
        },
        {
            "bufferView" : 5,
            "componentType" : 5126,
            "count" : 1689,
            "type" : "VEC3"
        },
        {
            "bufferView" : 6,
            "componentType" : 5126,
            "count" : 1689,
            "type" : "VEC2"
        },
        {
            "bufferView" : 7,
            "componentType" : 5123,
            "count" : 2751,
            "type" : "SCALAR"
        },
        {
            "bufferView" : 8,
            "componentType" : 5126,
            "count" : 64,
            "max" : [
                1.109308123588562,
                2.346850633621216,
                -1.411105990409851
            ],
            "min" : [
                0.5146947503089905,
                -2.3468518257141113,
                -2.08651065826416
            ],
            "type" : "VEC3"
        },
        {
            "bufferView" : 9,
            "componentType" : 5126,
            "count" : 64,
            "type" : "VEC3"
        },
        {
            "bufferView" : 10,
            "componentType" : 5126,
            "count" : 64,
            "type" : "VEC2"
        },
        {
            "bufferView" : 11,
            "componentType" : 5123,
            "count" : 96,
            "type" : "SCALAR"
        },
        {
            "bufferView" : 12,
            "componentType" : 5126,
            "count" : 559,
            "max" : [
                -4.456942558288574,
                2.278778553009033,
                -3.62851619720459
            ],
            "min" : [
                -4.818458080291748,
                -2.2787797451019287,
                -4.310252666473389
            ],
            "type" : "VEC3"
        },
        {
            "bufferView" : 13,
            "componentType" : 5126,
            "count" : 559,
            "type" : "VEC3"
        },
        {
            "bufferView" : 14,
            "componentType" : 5126,
            "count" : 559,
            "type" : "VEC2"
        },
        {
            "bufferView" : 15,
            "componentType" : 5123,
            "count" : 2880,
            "type" : "SCALAR"
        },
        {
            "bufferView" : 16,
            "componentType" : 5126,
            "count" : 4656,
            "max" : [
                0.7115802764892578,
                2.343324661254883,
                0.7113521695137024
            ],
            "min" : [
                -6.651904582977295,
                -2.343324661254883,
                -4.310211181640625
            ],
            "type" : "VEC3"
        },
        {
            "bufferView" : 17,
            "componentType" : 5126,
            "count" : 4656,
            "type" : "VEC3"
        },
        {
            "bufferView" : 18,
            "componentType" : 5126,
            "count" : 4656,
            "type" : "VEC2"
        },
        {
            "bufferView" : 19,
            "componentType" : 5123,
            "count" : 8985,
            "type" : "SCALAR"
        }
    ],
    "bufferViews" : [
        {
            "buffer" : 0,
            "byteLength" : 98976,
            "byteOffset" : 0
        },
        {
            "buffer" : 0,
            "byteLength" : 98976,
            "byteOffset" : 98976
        },
        {
            "buffer" : 0,
            "byteLength" : 65984,
            "byteOffset" : 197952
        },
        {
            "buffer" : 0,
            "byteLength" : 38868,
            "byteOffset" : 263936
        },
        {
            "buffer" : 0,
            "byteLength" : 20268,
            "byteOffset" : 302804
        },
        {
            "buffer" : 0,
            "byteLength" : 20268,
            "byteOffset" : 323072
        },
        {
            "buffer" : 0,
            "byteLength" : 13512,
            "byteOffset" : 343340
        },
        {
            "buffer" : 0,
            "byteLength" : 5502,
            "byteOffset" : 356852
        },
        {
            "buffer" : 0,
            "byteLength" : 768,
            "byteOffset" : 362356
        },
        {
            "buffer" : 0,
            "byteLength" : 768,
            "byteOffset" : 363124
        },
        {
            "buffer" : 0,
            "byteLength" : 512,
            "byteOffset" : 363892
        },
        {
            "buffer" : 0,
            "byteLength" : 192,
            "byteOffset" : 364404
        },
        {
            "buffer" : 0,
            "byteLength" : 6708,
            "byteOffset" : 364596
        },
        {
            "buffer" : 0,
            "byteLength" : 6708,
            "byteOffset" : 371304
        },
        {
            "buffer" : 0,
            "byteLength" : 4472,
            "byteOffset" : 378012
        },
        {
            "buffer" : 0,
            "byteLength" : 5760,
            "byteOffset" : 382484
        },
        {
            "buffer" : 0,
            "byteLength" : 55872,
            "byteOffset" : 388244
        },
        {
            "buffer" : 0,
            "byteLength" : 55872,
            "byteOffset" : 444116
        },
        {
            "buffer" : 0,
            "byteLength" : 37248,
            "byteOffset" : 499988
        },
        {
            "buffer" : 0,
            "byteLength" : 17970,
            "byteOffset" : 537236
        }
    ],
    "buffers" : [
        {
            "byteLength" : 555208,
            "uri" : "data:application/octet-stream;base64,"
        }
    ]
}
