{
    "asset" : {
        "generator" : "Khronos glTF Blender I/O v1.8.19",
        "version" : "2.0"
    },
    "scene" : 0,
    "scenes" : [
        {
            "name" : "Scene",
            "nodes" : [
                4
            ]
        }
    ],
    "nodes" : [
        {
            "mesh" : 0,
            "name" : "Object_4",
            "rotation" : [
                -0.25881898403167725,
                0.0001895426685223356,
                0,
                0.9659258127212524
            ],
            "scale" : [
                0.17306196689605713,
                1,
                1
            ],
            "translation" : [
                -0.002295990940183401,
                -3.1347925662994385,
                0
            ]
        },
        {
            "children" : [
                0
            ],
            "name" : "node-0_0"
        },
        {
            "children" : [
                1
            ],
            "name" : "GLTF_SceneRootNode",
            "rotation" : [
                0.7071068286895752,
                0,
                0,
                0.7071068286895752
            ]
        },
        {
            "children" : [
                2
            ],
            "name" : "root"
        },
        {
            "children" : [
                3
            ],
            "name" : "Sketchfab_model.001",
            "rotation" : [
                -0.50018310546875,
                0.49981689453125,
                -0.49981689453125,
                0.50018310546875
            ],
            "translation" : [
                3.109293222427368,
                0,
                0
            ]
        }
    ],
    "materials" : [
        {
            "doubleSided" : true,
            "name" : "White",
            "pbrMetallicRoughness" : {
                "baseColorFactor" : [
                    0.9999988079071045,
                    0.9999989867210388,
                    1,
                    1
                ],
                "metallicFactor" : 0
            }
        }
    ],
    "meshes" : [
        {
            "name" : "Object_0",
            "primitives" : [
                {
                    "attributes" : {
                        "POSITION" : 0,
                        "NORMAL" : 1,
                        "TEXCOORD_0" : 2
                    },
                    "indices" : 3,
                    "material" : 0
                }
            ]
        }
    ],
    "accessors" : [
        {
            "bufferView" : 0,
            "componentType" : 5126,
            "count" : 390,
            "max" : [
                0.05311800166964531,
                0.6734099984169006,
                0.6015200018882751
            ],
            "min" : [
                -0.05311800166964531,
                -0.6665319800376892,
                -0.6015200018882751
            ],
            "type" : "VEC3"
        },
        {
            "bufferView" : 1,
            "componentType" : 5126,
            "count" : 390,
            "type" : "VEC3"
        },
        {
            "bufferView" : 2,
            "componentType" : 5126,
            "count" : 390,
            "type" : "VEC2"
        },
        {
            "bufferView" : 3,
            "componentType" : 5123,
            "count" : 420,
            "type" : "SCALAR"
        }
    ],
    "bufferViews" : [
        {
            "buffer" : 0,
            "byteLength" : 4680,
            "byteOffset" : 0
        },
        {
            "buffer" : 0,
            "byteLength" : 4680,
            "byteOffset" : 4680
        },
        {
            "buffer" : 0,
            "byteLength" : 3120,
            "byteOffset" : 9360
        },
        {
            "buffer" : 0,
            "byteLength" : 840,
            "byteOffset" : 12480
        }
    ],
    "buffers" : [
        {
            "byteLength" : 13320,
            "uri" : "data:application/octet-stream;base64,"
        }
    ]
}
