{
    "asset" : {
        "generator" : "Khronos glTF Blender I/O v1.8.19",
        "version" : "2.0"
    },
    "scene" : 0,
    "scenes" : [
        {
            "name" : "Scene",
            "nodes" : [
                0,
                1,
                2,
                3,
                4,
                5,
                6,
                7,
                8,
                9,
                10,
                11
            ]
        }
    ],
    "nodes" : [
        {
            "mesh" : 0,
            "name" : "Cube.008",
            "rotation" : [
                0,
                1,
                0,
                -1.6292068494294654e-07
            ],
            "scale" : [
                0.05000000074505806,
                0.5,
                0.05000000074505806
            ],
            "translation" : [
                -0.948604166507721,
                0.5,
                0.7385202050209045
            ]
        },
        {
            "mesh" : 1,
            "name" : "Cube.009",
            "rotation" : [
                0,
                1,
                0,
                -1.6292068494294654e-07
            ],
            "scale" : [
                0.08956276625394821,
                0.23999999463558197,
                0.20000000298023224
            ],
            "translation" : [
                -0.948604166507721,
                0.7282934188842773,
                0.7385202050209045
            ]
        },
        {
            "mesh" : 2,
            "name" : "Plane.014",
            "rotation" : [
                -0.5000000596046448,
                -0.49999991059303284,
                -0.4999999403953552,
                0.5000000596046448
            ],
            "scale" : [
                0.1331726759672165,
                0.03341633826494217,
                0.018781529739499092
            ],
            "translation" : [
                -1.042557716369629,
                0.8360154628753662,
                0.7335871458053589
            ]
        },
        {
            "mesh" : 3,
            "name" : "Plane.015",
            "rotation" : [
                -0.5000000596046448,
                -0.49999991059303284,
                -0.4999999403953552,
                0.5000000596046448
            ],
            "scale" : [
                0.1331726759672165,
                0.03341633826494217,
                0.018781529739499092
            ],
            "translation" : [
                -1.042557716369629,
                0.6300289630889893,
                0.7335871458053589
            ]
        },
        {
            "mesh" : 4,
            "name" : "Plane.016",
            "rotation" : [
                0,
                0,
                -0.7071066498756409,
                0.70710688829422
            ],
            "scale" : [
                0.08858396112918854,
                0.03341633826494217,
                0.018781529739499092
            ],
            "translation" : [
                -1.044924259185791,
                0.7333755493164062,
                0.6479066610336304
            ]
        },
        {
            "mesh" : 5,
            "name" : "Plane.017",
            "rotation" : [
                0,
                0,
                -0.7071066498756409,
                0.70710688829422
            ],
            "scale" : [
                0.08858396112918854,
                0.03341633826494217,
                0.018781529739499092
            ],
            "translation" : [
                -1.044924259185791,
                0.7333755493164062,
                0.8279066681861877
            ]
        },
        {
            "mesh" : 6,
            "name" : "Plane.018",
            "rotation" : [
                0,
                0,
                -0.7071066498756409,
                0.70710688829422
            ],
            "scale" : [
                0.08858396112918854,
                0.03341633826494217,
                0.018781529739499092
            ],
            "translation" : [
                -1.044924259185791,
                0.7333755493164062,
                0.7353846430778503
            ]
        },
        {
            "mesh" : 7,
            "name" : "Plane.019",
            "rotation" : [
                -0.49999991059303284,
                0.5000001192092896,
                0.5000001192092896,
                0.49999988079071045
            ],
            "scale" : [
                0.1331726759672165,
                0.03341633826494217,
                0.018781529739499092
            ],
            "translation" : [
                -0.855607807636261,
                0.8360154628753662,
                0.7377617359161377
            ]
        },
        {
            "mesh" : 8,
            "name" : "Plane.020",
            "rotation" : [
                -0.49999991059303284,
                0.5000001192092896,
                0.5000001192092896,
                0.49999988079071045
            ],
            "scale" : [
                0.1331726759672165,
                0.03341633826494217,
                0.018781529739499092
            ],
            "translation" : [
                -0.855607807636261,
                0.6300289630889893,
                0.7377617359161377
            ]
        },
        {
            "mesh" : 9,
            "name" : "Plane.021",
            "rotation" : [
                -0.70710688829422,
                0.7071066498756409,
                0,
                -1.1520233300643667e-07
            ],
            "scale" : [
                0.08858396112918854,
                0.03341633826494217,
                0.018781529739499092
            ],
            "translation" : [
                -0.8532412648200989,
                0.7333755493164062,
                0.8234422206878662
            ]
        },
        {
            "mesh" : 10,
            "name" : "Plane.022",
            "rotation" : [
                -0.70710688829422,
                0.7071066498756409,
                0,
                -1.1520233300643667e-07
            ],
            "scale" : [
                0.08858396112918854,
                0.03341633826494217,
                0.018781529739499092
            ],
            "translation" : [
                -0.8532412648200989,
                0.7333755493164062,
                0.6434422135353088
            ]
        },
        {
            "mesh" : 11,
            "name" : "Plane.023",
            "rotation" : [
                -0.70710688829422,
                0.7071066498756409,
                0,
                -1.1520233300643667e-07
            ],
            "scale" : [
                0.08858396112918854,
                0.03341633826494217,
                0.018781529739499092
            ],
            "translation" : [
                -0.8532412648200989,
                0.7333755493164062,
                0.7359642386436462
            ]
        }
    ],
    "materials" : [
        {
            "doubleSided" : true,
            "name" : "White",
            "pbrMetallicRoughness" : {
                "baseColorFactor" : [
                    0.9999988079071045,
                    0.9999989867210388,
                    1,
                    1
                ],
                "metallicFactor" : 0
            }
        },
        {
            "doubleSided" : true,
            "name" : "parkingBlue.001",
            "pbrMetallicRoughness" : {
                "baseColorFactor" : [
                    0.8227859735488892,
                    0.33716338872909546,
                    0.004391558468341827,
                    1
                ],
                "metallicFactor" : 0
            }
        }
    ],
    "meshes" : [
        {
            "name" : "Cube.041",
            "primitives" : [
                {
                    "attributes" : {
                        "POSITION" : 0,
                        "NORMAL" : 1,
                        "TEXCOORD_0" : 2
                    },
                    "indices" : 3,
                    "material" : 0
                }
            ]
        },
        {
            "name" : "Cube.042",
            "primitives" : [
                {
                    "attributes" : {
                        "POSITION" : 4,
                        "NORMAL" : 5,
                        "TEXCOORD_0" : 6
                    },
                    "indices" : 3,
                    "material" : 1
                }
            ]
        },
        {
            "name" : "Plane.004",
            "primitives" : [
                {
                    "attributes" : {
                        "POSITION" : 7,
                        "NORMAL" : 8,
                        "TEXCOORD_0" : 9
                    },
                    "indices" : 10,
                    "material" : 0
                }
            ]
        },
        {
            "name" : "Plane.018",
            "primitives" : [
                {
                    "attributes" : {
                        "POSITION" : 11,
                        "NORMAL" : 12,
                        "TEXCOORD_0" : 13
                    },
                    "indices" : 10,
                    "material" : 0
                }
            ]
        },
        {
            "name" : "Plane.019",
            "primitives" : [
                {
                    "attributes" : {
                        "POSITION" : 14,
                        "NORMAL" : 15,
                        "TEXCOORD_0" : 16
                    },
                    "indices" : 10,
                    "material" : 0
                }
            ]
        },
        {
            "name" : "Plane.020",
            "primitives" : [
                {
                    "attributes" : {
                        "POSITION" : 17,
                        "NORMAL" : 18,
                        "TEXCOORD_0" : 19
                    },
                    "indices" : 10,
                    "material" : 0
                }
            ]
        },
        {
            "name" : "Plane.021",
            "primitives" : [
                {
                    "attributes" : {
                        "POSITION" : 20,
                        "NORMAL" : 21,
                        "TEXCOORD_0" : 22
                    },
                    "indices" : 10,
                    "material" : 0
                }
            ]
        },
        {
            "name" : "Plane.022",
            "primitives" : [
                {
                    "attributes" : {
                        "POSITION" : 23,
                        "NORMAL" : 24,
                        "TEXCOORD_0" : 25
                    },
                    "indices" : 10,
                    "material" : 0
                }
            ]
        },
        {
            "name" : "Plane.023",
            "primitives" : [
                {
                    "attributes" : {
                        "POSITION" : 26,
                        "NORMAL" : 27,
                        "TEXCOORD_0" : 28
                    },
                    "indices" : 10,
                    "material" : 0
                }
            ]
        },
        {
            "name" : "Plane.024",
            "primitives" : [
                {
                    "attributes" : {
                        "POSITION" : 29,
                        "NORMAL" : 30,
                        "TEXCOORD_0" : 31
                    },
                    "indices" : 10,
                    "material" : 0
                }
            ]
        },
        {
            "name" : "Plane.025",
            "primitives" : [
                {
                    "attributes" : {
                        "POSITION" : 32,
                        "NORMAL" : 33,
                        "TEXCOORD_0" : 34
                    },
                    "indices" : 10,
                    "material" : 0
                }
            ]
        },
        {
            "name" : "Plane.026",
            "primitives" : [
                {
                    "attributes" : {
                        "POSITION" : 35,
                        "NORMAL" : 36,
                        "TEXCOORD_0" : 37
                    },
                    "indices" : 10,
                    "material" : 0
                }
            ]
        }
    ],
    "accessors" : [
        {
            "bufferView" : 0,
            "componentType" : 5126,
            "count" : 24,
            "max" : [
                1,
                1,
                1
            ],
            "min" : [
                -1,
                -1,
                -1
            ],
            "type" : "VEC3"
        },
        {
            "bufferView" : 1,
            "componentType" : 5126,
            "count" : 24,
            "type" : "VEC3"
        },
        {
            "bufferView" : 2,
            "componentType" : 5126,
            "count" : 24,
            "type" : "VEC2"
        },
        {
            "bufferView" : 3,
            "componentType" : 5123,
            "count" : 36,
            "type" : "SCALAR"
        },
        {
            "bufferView" : 4,
            "componentType" : 5126,
            "count" : 24,
            "max" : [
                1,
                1,
                1
            ],
            "min" : [
                -1,
                -1,
                -1
            ],
            "type" : "VEC3"
        },
        {
            "bufferView" : 5,
            "componentType" : 5126,
            "count" : 24,
            "type" : "VEC3"
        },
        {
            "bufferView" : 6,
            "componentType" : 5126,
            "count" : 24,
            "type" : "VEC2"
        },
        {
            "bufferView" : 7,
            "componentType" : 5126,
            "count" : 60,
            "max" : [
                1,
                0.15000000596046448,
                1
            ],
            "min" : [
                -1,
                0,
                -1
            ],
            "type" : "VEC3"
        },
        {
            "bufferView" : 8,
            "componentType" : 5126,
            "count" : 60,
            "type" : "VEC3"
        },
        {
            "bufferView" : 9,
            "componentType" : 5126,
            "count" : 60,
            "type" : "VEC2"
        },
        {
            "bufferView" : 10,
            "componentType" : 5123,
            "count" : 132,
            "type" : "SCALAR"
        },
        {
            "bufferView" : 11,
            "componentType" : 5126,
            "count" : 60,
            "max" : [
                1,
                0.15000000596046448,
                1
            ],
            "min" : [
                -1,
                0,
                -1
            ],
            "type" : "VEC3"
        },
        {
            "bufferView" : 12,
            "componentType" : 5126,
            "count" : 60,
            "type" : "VEC3"
        },
        {
            "bufferView" : 13,
            "componentType" : 5126,
            "count" : 60,
            "type" : "VEC2"
        },
        {
            "bufferView" : 14,
            "componentType" : 5126,
            "count" : 60,
            "max" : [
                1,
                0.15000000596046448,
                1
            ],
            "min" : [
                -1,
                0,
                -1
            ],
            "type" : "VEC3"
        },
        {
            "bufferView" : 15,
            "componentType" : 5126,
            "count" : 60,
            "type" : "VEC3"
        },
        {
            "bufferView" : 16,
            "componentType" : 5126,
            "count" : 60,
            "type" : "VEC2"
        },
        {
            "bufferView" : 17,
            "componentType" : 5126,
            "count" : 60,
            "max" : [
                1,
                0.15000000596046448,
                1
            ],
            "min" : [
                -1,
                0,
                -1
            ],
            "type" : "VEC3"
        },
        {
            "bufferView" : 18,
            "componentType" : 5126,
            "count" : 60,
            "type" : "VEC3"
        },
        {
            "bufferView" : 19,
            "componentType" : 5126,
            "count" : 60,
            "type" : "VEC2"
        },
        {
            "bufferView" : 20,
            "componentType" : 5126,
            "count" : 60,
            "max" : [
                1,
                0.15000000596046448,
                1
            ],
            "min" : [
                -1,
                0,
                -1
            ],
            "type" : "VEC3"
        },
        {
            "bufferView" : 21,
            "componentType" : 5126,
            "count" : 60,
            "type" : "VEC3"
        },
        {
            "bufferView" : 22,
            "componentType" : 5126,
            "count" : 60,
            "type" : "VEC2"
        },
        {
            "bufferView" : 23,
            "componentType" : 5126,
            "count" : 60,
            "max" : [
                1,
                0.15000000596046448,
                1
            ],
            "min" : [
                -1,
                0,
                -1
            ],
            "type" : "VEC3"
        },
        {
            "bufferView" : 24,
            "componentType" : 5126,
            "count" : 60,
            "type" : "VEC3"
        },
        {
            "bufferView" : 25,
            "componentType" : 5126,
            "count" : 60,
            "type" : "VEC2"
        },
        {
            "bufferView" : 26,
            "componentType" : 5126,
            "count" : 60,
            "max" : [
                1,
                0.15000000596046448,
                1
            ],
            "min" : [
                -1,
                0,
                -1
            ],
            "type" : "VEC3"
        },
        {
            "bufferView" : 27,
            "componentType" : 5126,
            "count" : 60,
            "type" : "VEC3"
        },
        {
            "bufferView" : 28,
            "componentType" : 5126,
            "count" : 60,
            "type" : "VEC2"
        },
        {
            "bufferView" : 29,
            "componentType" : 5126,
            "count" : 60,
            "max" : [
                1,
                0.15000000596046448,
                1
            ],
            "min" : [
                -1,
                0,
                -1
            ],
            "type" : "VEC3"
        },
        {
            "bufferView" : 30,
            "componentType" : 5126,
            "count" : 60,
            "type" : "VEC3"
        },
        {
            "bufferView" : 31,
            "componentType" : 5126,
            "count" : 60,
            "type" : "VEC2"
        },
        {
            "bufferView" : 32,
            "componentType" : 5126,
            "count" : 60,
            "max" : [
                1,
                0.15000000596046448,
                1
            ],
            "min" : [
                -1,
                0,
                -1
            ],
            "type" : "VEC3"
        },
        {
            "bufferView" : 33,
            "componentType" : 5126,
            "count" : 60,
            "type" : "VEC3"
        },
        {
            "bufferView" : 34,
            "componentType" : 5126,
            "count" : 60,
            "type" : "VEC2"
        },
        {
            "bufferView" : 35,
            "componentType" : 5126,
            "count" : 60,
            "max" : [
                1,
                0.15000000596046448,
                1
            ],
            "min" : [
                -1,
                0,
                -1
            ],
            "type" : "VEC3"
        },
        {
            "bufferView" : 36,
            "componentType" : 5126,
            "count" : 60,
            "type" : "VEC3"
        },
        {
            "bufferView" : 37,
            "componentType" : 5126,
            "count" : 60,
            "type" : "VEC2"
        }
    ],
    "bufferViews" : [
        {
            "buffer" : 0,
            "byteLength" : 288,
            "byteOffset" : 0
        },
        {
            "buffer" : 0,
            "byteLength" : 288,
            "byteOffset" : 288
        },
        {
            "buffer" : 0,
            "byteLength" : 192,
            "byteOffset" : 576
        },
        {
            "buffer" : 0,
            "byteLength" : 72,
            "byteOffset" : 768
        },
        {
            "buffer" : 0,
            "byteLength" : 288,
            "byteOffset" : 840
        },
        {
            "buffer" : 0,
            "byteLength" : 288,
            "byteOffset" : 1128
        },
        {
            "buffer" : 0,
            "byteLength" : 192,
            "byteOffset" : 1416
        },
        {
            "buffer" : 0,
            "byteLength" : 720,
            "byteOffset" : 1608
        },
        {
            "buffer" : 0,
            "byteLength" : 720,
            "byteOffset" : 2328
        },
        {
            "buffer" : 0,
            "byteLength" : 480,
            "byteOffset" : 3048
        },
        {
            "buffer" : 0,
            "byteLength" : 264,
            "byteOffset" : 3528
        },
        {
            "buffer" : 0,
            "byteLength" : 720,
            "byteOffset" : 3792
        },
        {
            "buffer" : 0,
            "byteLength" : 720,
            "byteOffset" : 4512
        },
        {
            "buffer" : 0,
            "byteLength" : 480,
            "byteOffset" : 5232
        },
        {
            "buffer" : 0,
            "byteLength" : 720,
            "byteOffset" : 5712
        },
        {
            "buffer" : 0,
            "byteLength" : 720,
            "byteOffset" : 6432
        },
        {
            "buffer" : 0,
            "byteLength" : 480,
            "byteOffset" : 7152
        },
        {
            "buffer" : 0,
            "byteLength" : 720,
            "byteOffset" : 7632
        },
        {
            "buffer" : 0,
            "byteLength" : 720,
            "byteOffset" : 8352
        },
        {
            "buffer" : 0,
            "byteLength" : 480,
            "byteOffset" : 9072
        },
        {
            "buffer" : 0,
            "byteLength" : 720,
            "byteOffset" : 9552
        },
        {
            "buffer" : 0,
            "byteLength" : 720,
            "byteOffset" : 10272
        },
        {
            "buffer" : 0,
            "byteLength" : 480,
            "byteOffset" : 10992
        },
        {
            "buffer" : 0,
            "byteLength" : 720,
            "byteOffset" : 11472
        },
        {
            "buffer" : 0,
            "byteLength" : 720,
            "byteOffset" : 12192
        },
        {
            "buffer" : 0,
            "byteLength" : 480,
            "byteOffset" : 12912
        },
        {
            "buffer" : 0,
            "byteLength" : 720,
            "byteOffset" : 13392
        },
        {
            "buffer" : 0,
            "byteLength" : 720,
            "byteOffset" : 14112
        },
        {
            "buffer" : 0,
            "byteLength" : 480,
            "byteOffset" : 14832
        },
        {
            "buffer" : 0,
            "byteLength" : 720,
            "byteOffset" : 15312
        },
        {
            "buffer" : 0,
            "byteLength" : 720,
            "byteOffset" : 16032
        },
        {
            "buffer" : 0,
            "byteLength" : 480,
            "byteOffset" : 16752
        },
        {
            "buffer" : 0,
            "byteLength" : 720,
            "byteOffset" : 17232
        },
        {
            "buffer" : 0,
            "byteLength" : 720,
            "byteOffset" : 17952
        },
        {
            "buffer" : 0,
            "byteLength" : 480,
            "byteOffset" : 18672
        },
        {
            "buffer" : 0,
            "byteLength" : 720,
            "byteOffset" : 19152
        },
        {
            "buffer" : 0,
            "byteLength" : 720,
            "byteOffset" : 19872
        },
        {
            "buffer" : 0,
            "byteLength" : 480,
            "byteOffset" : 20592
        }
    ],
    "buffers" : [
        {
            "byteLength" : 21072,
            "uri" : "data:application/octet-stream;base64,"
        }
    ]
}
