{
    "asset" : {
        "generator" : "Khronos glTF Blender I/O v1.8.19",
        "version" : "2.0"
    },
    "scene" : 0,
    "scenes" : [
        {
            "name" : "Scene",
            "nodes" : [
                0
            ]
        }
    ],
    "nodes" : [
        {
            "mesh" : 0,
            "name" : "Text.003",
            "rotation" : [
                -5.673057330568554e-06,
                -0.999992847442627,
                0,
                0.003781938925385475
            ],
            "scale" : [
                1.5011390447616577,
                1.5011390447616577,
                1.5011390447616577
            ],
            "translation" : [
                0.4198741912841797,
                0.011301644146442413,
                -0.4526170492172241
            ]
        }
    ],
    "materials" : [
        {
            "doubleSided" : true,
            "name" : "White",
            "pbrMetallicRoughness" : {
                "baseColorFactor" : [
                    0.9999988079071045,
                    0.9999989867210388,
                    1,
                    1
                ],
                "metallicFactor" : 0
            }
        }
    ],
    "meshes" : [
        {
            "name" : "parkingText.003",
            "primitives" : [
                {
                    "attributes" : {
                        "POSITION" : 0,
                        "NORMAL" : 1,
                        "TEXCOORD_0" : 2
                    },
                    "indices" : 3,
                    "material" : 0
                }
            ]
        }
    ],
    "accessors" : [
        {
            "bufferView" : 0,
            "componentType" : 5126,
            "count" : 1259,
            "max" : [
                0.5020000338554382,
                0,
                0.11800000816583633
            ],
            "min" : [
                0.05100000277161598,
                -0.009999999776482582,
                -0.6910000443458557
            ],
            "type" : "VEC3"
        },
        {
            "bufferView" : 1,
            "componentType" : 5126,
            "count" : 1259,
            "type" : "VEC3"
        },
        {
            "bufferView" : 2,
            "componentType" : 5126,
            "count" : 1259,
            "type" : "VEC2"
        },
        {
            "bufferView" : 3,
            "componentType" : 5123,
            "count" : 1884,
            "type" : "SCALAR"
        }
    ],
    "bufferViews" : [
        {
            "buffer" : 0,
            "byteLength" : 15108,
            "byteOffset" : 0
        },
        {
            "buffer" : 0,
            "byteLength" : 15108,
            "byteOffset" : 15108
        },
        {
            "buffer" : 0,
            "byteLength" : 10072,
            "byteOffset" : 30216
        },
        {
            "buffer" : 0,
            "byteLength" : 3768,
            "byteOffset" : 40288
        }
    ],
    "buffers" : [
        {
            "byteLength" : 44056,
            "uri" : "data:application/octet-stream;base64,"
        }
    ]
}
