{
    "asset" : {
        "generator" : "Khronos glTF Blender I/O v1.8.19",
        "version" : "2.0"
    },
    "scene" : 0,
    "scenes" : [
        {
            "name" : "Scene",
            "nodes" : [
                0
            ]
        }
    ],
    "nodes" : [
        {
            "mesh" : 0,
            "name" : "Cube.097",
            "scale" : [
                0.09528905153274536,
                0.09528905153274536,
                0.09528905153274536
            ],
            "translation" : [
                0,
                0.10000000149011612,
                0
            ]
        }
    ],
    "materials" : [
        {
            "doubleSided" : true,
            "name" : "houseColor",
            "pbrMetallicRoughness" : {
                "baseColorFactor" : [
                    0.1328606903553009,
                    0.007157877553254366,
                    0.006525508593767881,
                    1
                ],
                "metallicFactor" : 0,
                "roughnessFactor" : 0.5
            }
        }
    ],
    "meshes" : [
        {
            "name" : "Cube.051",
            "primitives" : [
                {
                    "attributes" : {
                        "POSITION" : 0,
                        "NORMAL" : 1
                    },
                    "indices" : 2,
                    "material" : 0
                }
            ]
        }
    ],
    "accessors" : [
        {
            "bufferView" : 0,
            "componentType" : 5126,
            "count" : 15708,
            "max" : [
                1.0463054180145264,
                1.9245514869689941,
                1.046305537223816
            ],
            "min" : [
                -1.046305537223816,
                -0.9846882820129395,
                -1.0463054180145264
            ],
            "type" : "VEC3"
        },
        {
            "bufferView" : 1,
            "componentType" : 5126,
            "count" : 15708,
            "type" : "VEC3"
        },
        {
            "bufferView" : 2,
            "componentType" : 5123,
            "count" : 66468,
            "type" : "SCALAR"
        }
    ],
    "bufferViews" : [
        {
            "buffer" : 0,
            "byteLength" : 188496,
            "byteOffset" : 0
        },
        {
            "buffer" : 0,
            "byteLength" : 188496,
            "byteOffset" : 188496
        },
        {
            "buffer" : 0,
            "byteLength" : 132936,
            "byteOffset" : 376992
        }
    ],
    "buffers" : [
        {
            "byteLength" : 509928,
            "uri" : "data:application/octet-stream;base64,"
        }
    ]
}
