{
    "asset" : {
        "generator" : "Khronos glTF Blender I/O v1.8.19",
        "version" : "2.0"
    },
    "scene" : 0,
    "scenes" : [
        {
            "name" : "Scene",
            "nodes" : [
                0
            ]
        }
    ],
    "nodes" : [
        {
            "mesh" : 0,
            "name" : "Tile_Rocky_01.059",
            "rotation" : [
                0,
                0,
                1,
                -1.812859554855585e-14
            ],
            "translation" : [
                0,
                -1.0660382509231567,
                0
            ]
        }
    ],
    "materials" : [
        {
            "doubleSided" : true,
            "name" : "ground1",
            "pbrMetallicRoughness" : {
                "baseColorFactor" : [
                    0.16794459521770477,
                    0.10604584962129593,
                    0.06191929057240486,
                    1
                ],
                "metallicFactor" : 0.11999999731779099
            }
        },
        {
            "doubleSided" : true,
            "name" : "plants2",
            "pbrMetallicRoughness" : {
                "baseColorFactor" : [
                    0.37626147270202637,
                    0.799102783203125,
                    0.022174105048179626,
                    1
                ],
                "metallicFactor" : 0.13714300096035004,
                "roughnessFactor" : 0.5828571319580078
            }
        }
    ],
    "meshes" : [
        {
            "name" : "Cube.057",
            "primitives" : [
                {
                    "attributes" : {
                        "POSITION" : 0,
                        "NORMAL" : 1
                    },
                    "indices" : 2,
                    "material" : 0
                },
                {
                    "attributes" : {
                        "POSITION" : 3,
                        "NORMAL" : 4
                    },
                    "indices" : 5,
                    "material" : 1
                }
            ]
        }
    ],
    "accessors" : [
        {
            "bufferView" : 0,
            "componentType" : 5126,
            "count" : 522,
            "max" : [
                1.2388026714324951,
                1.1856759786605835,
                1.2002538442611694
            ],
            "min" : [
                -1.2256569862365723,
                -0.6320111155509949,
                -1.0995121002197266
            ],
            "type" : "VEC3"
        },
        {
            "bufferView" : 1,
            "componentType" : 5126,
            "count" : 522,
            "type" : "VEC3"
        },
        {
            "bufferView" : 2,
            "componentType" : 5123,
            "count" : 1638,
            "type" : "SCALAR"
        },
        {
            "bufferView" : 3,
            "componentType" : 5126,
            "count" : 1885,
            "max" : [
                1.2733389139175415,
                -0.3103659749031067,
                1.2414497137069702
            ],
            "min" : [
                -1.2328099012374878,
                -1.1302411556243896,
                -1.1048369407653809
            ],
            "type" : "VEC3"
        },
        {
            "bufferView" : 4,
            "componentType" : 5126,
            "count" : 1885,
            "type" : "VEC3"
        },
        {
            "bufferView" : 5,
            "componentType" : 5123,
            "count" : 3942,
            "type" : "SCALAR"
        }
    ],
    "bufferViews" : [
        {
            "buffer" : 0,
            "byteLength" : 6264,
            "byteOffset" : 0
        },
        {
            "buffer" : 0,
            "byteLength" : 6264,
            "byteOffset" : 6264
        },
        {
            "buffer" : 0,
            "byteLength" : 3276,
            "byteOffset" : 12528
        },
        {
            "buffer" : 0,
            "byteLength" : 22620,
            "byteOffset" : 15804
        },
        {
            "buffer" : 0,
            "byteLength" : 22620,
            "byteOffset" : 38424
        },
        {
            "buffer" : 0,
            "byteLength" : 7884,
            "byteOffset" : 61044
        }
    ],
    "buffers" : [
        {
            "byteLength" : 68928,
            "uri" : "data:application/octet-stream;base64,"
        }
    ]
}
