{
    "asset" : {
        "generator" : "Khronos glTF Blender I/O v1.8.19",
        "version" : "2.0"
    },
    "scene" : 0,
    "scenes" : [
        {
            "name" : "Scene",
            "nodes" : [
                0
            ]
        }
    ],
    "nodes" : [
        {
            "mesh" : 0,
            "name" : "Tile_Rocky_01.002",
            "rotation" : [
                0,
                0,
                1,
                -1.812859554855585e-14
            ],
            "translation" : [
                0,
                -1.0660382509231567,
                0
            ]
        }
    ],
    "materials" : [
        {
            "doubleSided" : true,
            "name" : "ground1.001",
            "pbrMetallicRoughness" : {
                "baseColorFactor" : [
                    0.16794459521770477,
                    0.10604584962129593,
                    0.06191929057240486,
                    1
                ],
                "metallicFactor" : 0.11999999731779099
            }
        },
        {
            "doubleSided" : true,
            "name" : "plants2.001",
            "pbrMetallicRoughness" : {
                "baseColorFactor" : [
                    0.3077341616153717,
                    0.8468735814094543,
                    0,
                    1
                ],
                "metallicFactor" : 0.13714300096035004,
                "roughnessFactor" : 0.5828571319580078
            }
        }
    ],
    "meshes" : [
        {
            "name" : "Cube.002",
            "primitives" : [
                {
                    "attributes" : {
                        "POSITION" : 0,
                        "NORMAL" : 1
                    },
                    "indices" : 2,
                    "material" : 0
                },
                {
                    "attributes" : {
                        "POSITION" : 3,
                        "NORMAL" : 4
                    },
                    "indices" : 5,
                    "material" : 1
                }
            ]
        }
    ],
    "accessors" : [
        {
            "bufferView" : 0,
            "componentType" : 5126,
            "count" : 6334,
            "max" : [
                1.1950218677520752,
                1.20247483253479,
                1.2430636882781982
            ],
            "min" : [
                -1.2415119409561157,
                -0.6249254941940308,
                -1.1064510345458984
            ],
            "type" : "VEC3"
        },
        {
            "bufferView" : 1,
            "componentType" : 5126,
            "count" : 6334,
            "type" : "VEC3"
        },
        {
            "bufferView" : 2,
            "componentType" : 5123,
            "count" : 17580,
            "type" : "SCALAR"
        },
        {
            "bufferView" : 3,
            "componentType" : 5126,
            "count" : 3092,
            "max" : [
                1.2820408344268799,
                -0.6249254941940308,
                1.2430636882781982
            ],
            "min" : [
                -1.2415119409561157,
                -1.0600208044052124,
                -1.1064510345458984
            ],
            "type" : "VEC3"
        },
        {
            "bufferView" : 4,
            "componentType" : 5126,
            "count" : 3092,
            "type" : "VEC3"
        },
        {
            "bufferView" : 5,
            "componentType" : 5123,
            "count" : 8448,
            "type" : "SCALAR"
        }
    ],
    "bufferViews" : [
        {
            "buffer" : 0,
            "byteLength" : 76008,
            "byteOffset" : 0
        },
        {
            "buffer" : 0,
            "byteLength" : 76008,
            "byteOffset" : 76008
        },
        {
            "buffer" : 0,
            "byteLength" : 35160,
            "byteOffset" : 152016
        },
        {
            "buffer" : 0,
            "byteLength" : 37104,
            "byteOffset" : 187176
        },
        {
            "buffer" : 0,
            "byteLength" : 37104,
            "byteOffset" : 224280
        },
        {
            "buffer" : 0,
            "byteLength" : 16896,
            "byteOffset" : 261384
        }
    ],
    "buffers" : [
        {
            "byteLength" : 278280,
            "uri" : "data:application/octet-stream;base64,"
        }
    ]
}
