{
    "asset" : {
        "generator" : "Khronos glTF Blender I/O v1.8.19",
        "version" : "2.0"
    },
    "scene" : 0,
    "scenes" : [
        {
            "name" : "Scene",
            "nodes" : [
                0
            ]
        }
    ],
    "nodes" : [
        {
            "mesh" : 0,
            "name" : "Icosphere.008",
            "scale" : [
                0.1644003689289093,
                0.1644003689289093,
                0.1644003689289093
            ],
            "translation" : [
                -0.10080742835998535,
                -0.15393567085266113,
                0.4237062633037567
            ]
        }
    ],
    "materials" : [
        {
            "doubleSided" : true,
            "name" : "Material.005",
            "pbrMetallicRoughness" : {
                "baseColorFactor" : [
                    0.23955275118350983,
                    0.16895590722560883,
                    0.12282642722129822,
                    1
                ],
                "metallicFactor" : 0,
                "roughnessFactor" : 0.4000000059604645
            }
        },
        {
            "doubleSided" : true,
            "name" : "Material.007",
            "pbrMetallicRoughness" : {
                "baseColorFactor" : [
                    0.2395523190498352,
                    0.09763399511575699,
                    0.04247196018695831,
                    1
                ],
                "metallicFactor" : 0,
                "roughnessFactor" : 0.4000000059604645
            }
        },
        {
            "doubleSided" : true,
            "name" : "Material.003",
            "pbrMetallicRoughness" : {
                "baseColorFactor" : [
                    0.42922651767730713,
                    0.2422836720943451,
                    0.1215447336435318,
                    1
                ],
                "metallicFactor" : 0,
                "roughnessFactor" : 0.4000000059604645
            }
        },
        {
            "doubleSided" : true,
            "name" : "Material.004",
            "pbrMetallicRoughness" : {
                "baseColorFactor" : [
                    0.2667617201805115,
                    0.24680417776107788,
                    0.21008802950382233,
                    1
                ],
                "metallicFactor" : 0,
                "roughnessFactor" : 0.4000000059604645
            }
        },
        {
            "doubleSided" : true,
            "name" : "Material.008",
            "pbrMetallicRoughness" : {
                "baseColorFactor" : [
                    0.2500021159648895,
                    0.41093894839286804,
                    0.056234076619148254,
                    1
                ],
                "metallicFactor" : 0
            }
        }
    ],
    "meshes" : [
        {
            "name" : "Icosphere.008",
            "primitives" : [
                {
                    "attributes" : {
                        "POSITION" : 0,
                        "NORMAL" : 1,
                        "TEXCOORD_0" : 2
                    },
                    "indices" : 3,
                    "material" : 0
                },
                {
                    "attributes" : {
                        "POSITION" : 4,
                        "NORMAL" : 5,
                        "TEXCOORD_0" : 6
                    },
                    "indices" : 7,
                    "material" : 1
                },
                {
                    "attributes" : {
                        "POSITION" : 8,
                        "NORMAL" : 9,
                        "TEXCOORD_0" : 10
                    },
                    "indices" : 11,
                    "material" : 2
                },
                {
                    "attributes" : {
                        "POSITION" : 12,
                        "NORMAL" : 13,
                        "TEXCOORD_0" : 14
                    },
                    "indices" : 15,
                    "material" : 3
                },
                {
                    "attributes" : {
                        "POSITION" : 16,
                        "NORMAL" : 17,
                        "TEXCOORD_0" : 18
                    },
                    "indices" : 19,
                    "material" : 4
                }
            ]
        }
    ],
    "accessors" : [
        {
            "bufferView" : 0,
            "componentType" : 5126,
            "count" : 504,
            "max" : [
                5.284353733062744,
                0.5675657391548157,
                3.4092681407928467
            ],
            "min" : [
                -4.015265941619873,
                -2.166168689727783,
                0.7451610565185547
            ],
            "type" : "VEC3"
        },
        {
            "bufferView" : 1,
            "componentType" : 5126,
            "count" : 504,
            "type" : "VEC3"
        },
        {
            "bufferView" : 2,
            "componentType" : 5126,
            "count" : 504,
            "type" : "VEC2"
        },
        {
            "bufferView" : 3,
            "componentType" : 5123,
            "count" : 504,
            "type" : "SCALAR"
        },
        {
            "bufferView" : 4,
            "componentType" : 5126,
            "count" : 444,
            "max" : [
                3.799677848815918,
                0.7642566561698914,
                3.5534019470214844
            ],
            "min" : [
                -4.18731689453125,
                -1.8104238510131836,
                0.002932310104370117
            ],
            "type" : "VEC3"
        },
        {
            "bufferView" : 5,
            "componentType" : 5126,
            "count" : 444,
            "type" : "VEC3"
        },
        {
            "bufferView" : 6,
            "componentType" : 5126,
            "count" : 444,
            "type" : "VEC2"
        },
        {
            "bufferView" : 7,
            "componentType" : 5123,
            "count" : 444,
            "type" : "SCALAR"
        },
        {
            "bufferView" : 8,
            "componentType" : 5126,
            "count" : 610,
            "max" : [
                6.136308193206787,
                0.8509435057640076,
                2.6489739418029785
            ],
            "min" : [
                -4.582086563110352,
                -3.0269081592559814,
                -8.586505889892578
            ],
            "type" : "VEC3"
        },
        {
            "bufferView" : 9,
            "componentType" : 5126,
            "count" : 610,
            "type" : "VEC3"
        },
        {
            "bufferView" : 10,
            "componentType" : 5126,
            "count" : 610,
            "type" : "VEC2"
        },
        {
            "bufferView" : 11,
            "componentType" : 5123,
            "count" : 630,
            "type" : "SCALAR"
        },
        {
            "bufferView" : 12,
            "componentType" : 5126,
            "count" : 1428,
            "max" : [
                5.901739597320557,
                1.9849560260772705,
                2.7041115760803223
            ],
            "min" : [
                -3.6540846824645996,
                0.693577229976654,
                -7.363133907318115
            ],
            "type" : "VEC3"
        },
        {
            "bufferView" : 13,
            "componentType" : 5126,
            "count" : 1428,
            "type" : "VEC3"
        },
        {
            "bufferView" : 14,
            "componentType" : 5126,
            "count" : 1428,
            "type" : "VEC2"
        },
        {
            "bufferView" : 15,
            "componentType" : 5123,
            "count" : 1470,
            "type" : "SCALAR"
        },
        {
            "bufferView" : 16,
            "componentType" : 5126,
            "count" : 172,
            "max" : [
                6.950327396392822,
                0.920706570148468,
                3.900531053543091
            ],
            "min" : [
                -5.699950218200684,
                0.5331576466560364,
                -8.99209213256836
            ],
            "type" : "VEC3"
        },
        {
            "bufferView" : 17,
            "componentType" : 5126,
            "count" : 172,
            "type" : "VEC3"
        },
        {
            "bufferView" : 18,
            "componentType" : 5126,
            "count" : 172,
            "type" : "VEC2"
        },
        {
            "bufferView" : 19,
            "componentType" : 5123,
            "count" : 336,
            "type" : "SCALAR"
        }
    ],
    "bufferViews" : [
        {
            "buffer" : 0,
            "byteLength" : 6048,
            "byteOffset" : 0
        },
        {
            "buffer" : 0,
            "byteLength" : 6048,
            "byteOffset" : 6048
        },
        {
            "buffer" : 0,
            "byteLength" : 4032,
            "byteOffset" : 12096
        },
        {
            "buffer" : 0,
            "byteLength" : 1008,
            "byteOffset" : 16128
        },
        {
            "buffer" : 0,
            "byteLength" : 5328,
            "byteOffset" : 17136
        },
        {
            "buffer" : 0,
            "byteLength" : 5328,
            "byteOffset" : 22464
        },
        {
            "buffer" : 0,
            "byteLength" : 3552,
            "byteOffset" : 27792
        },
        {
            "buffer" : 0,
            "byteLength" : 888,
            "byteOffset" : 31344
        },
        {
            "buffer" : 0,
            "byteLength" : 7320,
            "byteOffset" : 32232
        },
        {
            "buffer" : 0,
            "byteLength" : 7320,
            "byteOffset" : 39552
        },
        {
            "buffer" : 0,
            "byteLength" : 4880,
            "byteOffset" : 46872
        },
        {
            "buffer" : 0,
            "byteLength" : 1260,
            "byteOffset" : 51752
        },
        {
            "buffer" : 0,
            "byteLength" : 17136,
            "byteOffset" : 53012
        },
        {
            "buffer" : 0,
            "byteLength" : 17136,
            "byteOffset" : 70148
        },
        {
            "buffer" : 0,
            "byteLength" : 11424,
            "byteOffset" : 87284
        },
        {
            "buffer" : 0,
            "byteLength" : 2940,
            "byteOffset" : 98708
        },
        {
            "buffer" : 0,
            "byteLength" : 2064,
            "byteOffset" : 101648
        },
        {
            "buffer" : 0,
            "byteLength" : 2064,
            "byteOffset" : 103712
        },
        {
            "buffer" : 0,
            "byteLength" : 1376,
            "byteOffset" : 105776
        },
        {
            "buffer" : 0,
            "byteLength" : 672,
            "byteOffset" : 107152
        }
    ],
    "buffers" : [
        {
            "byteLength" : 107824,
            "uri" : "data:application/octet-stream;base64,"
        }
    ]
}
