{
    "asset" : {
        "generator" : "Khronos glTF Blender I/O v1.8.19",
        "version" : "2.0"
    },
    "scene" : 0,
    "scenes" : [
        {
            "name" : "Scene",
            "nodes" : [
                5
            ]
        }
    ],
    "nodes" : [
        {
            "mesh" : 0,
            "name" : "Cube.002_Material_0"
        },
        {
            "mesh" : 1,
            "name" : "Cube.002_Numbers_0"
        },
        {
            "children" : [
                0,
                1
            ],
            "name" : "Cube.002",
            "rotation" : [
                -0.7071068286895752,
                0,
                0,
                0.7071067094802856
            ],
            "scale" : [
                100,
                100,
                100
            ],
            "translation" : [
                -2.017181396484375,
                0,
                0
            ]
        },
        {
            "children" : [
                2
            ],
            "name" : "RootNode"
        },
        {
            "children" : [
                3
            ],
            "name" : "e839fe392b5440ea956b245afe1cfb69.fbx",
            "rotation" : [
                0.7071068286895752,
                0,
                0,
                0.7071068286895752
            ],
            "scale" : [
                0.009999999776482582,
                0.009999999776482582,
                0.009999999776482582
            ]
        },
        {
            "children" : [
                4
            ],
            "name" : "Sketchfab_model",
            "rotation" : [
                -0.4999981224536896,
                -0.500001847743988,
                0.500001847743988,
                0.4999981224536896
            ]
        }
    ],
    "materials" : [
        {
            "doubleSided" : true,
            "name" : "Material.002",
            "pbrMetallicRoughness" : {
                "metallicFactor" : 0,
                "roughnessFactor" : 0.7763931751251221
            }
        },
        {
            "doubleSided" : true,
            "name" : "Numbers",
            "pbrMetallicRoughness" : {
                "baseColorFactor" : [
                    0,
                    0,
                    0,
                    1
                ],
                "metallicFactor" : 0
            }
        }
    ],
    "meshes" : [
        {
            "name" : "Cube.002_Material_0",
            "primitives" : [
                {
                    "attributes" : {
                        "POSITION" : 0,
                        "NORMAL" : 1,
                        "TEXCOORD_0" : 2
                    },
                    "indices" : 3,
                    "material" : 0
                }
            ]
        },
        {
            "name" : "Cube.002_Numbers_0",
            "primitives" : [
                {
                    "attributes" : {
                        "POSITION" : 4,
                        "NORMAL" : 5,
                        "TEXCOORD_0" : 6
                    },
                    "indices" : 7,
                    "material" : 1
                }
            ]
        }
    ],
    "accessors" : [
        {
            "bufferView" : 0,
            "componentType" : 5126,
            "count" : 37511,
            "max" : [
                1.000000238418579,
                1.000000238418579,
                1.000000238418579
            ],
            "min" : [
                -1.0000003576278687,
                -1.000000238418579,
                -1.0000003576278687
            ],
            "type" : "VEC3"
        },
        {
            "bufferView" : 1,
            "componentType" : 5126,
            "count" : 37511,
            "type" : "VEC3"
        },
        {
            "bufferView" : 2,
            "componentType" : 5126,
            "count" : 37511,
            "type" : "VEC2"
        },
        {
            "bufferView" : 3,
            "componentType" : 5123,
            "count" : 146304,
            "type" : "SCALAR"
        },
        {
            "bufferView" : 4,
            "componentType" : 5126,
            "count" : 7949,
            "max" : [
                0.9768080115318298,
                0.9768080115318298,
                0.9768080115318298
            ],
            "min" : [
                -0.9768080115318298,
                -0.9768080115318298,
                -0.9768080115318298
            ],
            "type" : "VEC3"
        },
        {
            "bufferView" : 5,
            "componentType" : 5126,
            "count" : 7949,
            "type" : "VEC3"
        },
        {
            "bufferView" : 6,
            "componentType" : 5126,
            "count" : 7949,
            "type" : "VEC2"
        },
        {
            "bufferView" : 7,
            "componentType" : 5123,
            "count" : 40320,
            "type" : "SCALAR"
        }
    ],
    "bufferViews" : [
        {
            "buffer" : 0,
            "byteLength" : 450132,
            "byteOffset" : 0
        },
        {
            "buffer" : 0,
            "byteLength" : 450132,
            "byteOffset" : 450132
        },
        {
            "buffer" : 0,
            "byteLength" : 300088,
            "byteOffset" : 900264
        },
        {
            "buffer" : 0,
            "byteLength" : 292608,
            "byteOffset" : 1200352
        },
        {
            "buffer" : 0,
            "byteLength" : 95388,
            "byteOffset" : 1492960
        },
        {
            "buffer" : 0,
            "byteLength" : 95388,
            "byteOffset" : 1588348
        },
        {
            "buffer" : 0,
            "byteLength" : 63592,
            "byteOffset" : 1683736
        },
        {
            "buffer" : 0,
            "byteLength" : 80640,
            "byteOffset" : 1747328
        }
    ],
    "buffers" : [
        {
            "byteLength" : 1827968,
            "uri" : "data:application/octet-stream;base64,"
        }
    ]
}
