{
    "asset" : {
        "generator" : "Khronos glTF Blender I/O v1.8.19",
        "version" : "2.0"
    },
    "scene" : 0,
    "scenes" : [
        {
            "name" : "Scene",
            "nodes" : [
                0
            ]
        }
    ],
    "nodes" : [
        {
            "mesh" : 0,
            "name" : "detail_forestB.001",
            "rotation" : [
                0.7071068286895752,
                0,
                0,
                0.7071067094802856
            ],
            "scale" : [
                0.20000000298023224,
                0.20000000298023224,
                0.20000000298023224
            ]
        }
    ],
    "materials" : [
        {
            "doubleSided" : true,
            "name" : "GreenDark.009",
            "pbrMetallicRoughness" : {
                "baseColorFactor" : [
                    0.3070330023765564,
                    0.5704699158668518,
                    0.08380448818206787,
                    1
                ],
                "metallicFactor" : 0
            }
        },
        {
            "doubleSided" : true,
            "name" : "BrownDark.053",
            "pbrMetallicRoughness" : {
                "baseColorFactor" : [
                    0.32694560289382935,
                    0.10152623057365417,
                    0.05927089974284172,
                    1
                ],
                "metallicFactor" : 0
            }
        },
        {
            "doubleSided" : true,
            "name" : "Stone.006",
            "pbrMetallicRoughness" : {
                "baseColorFactor" : [
                    0.1923278123140335,
                    0.22819341719150543,
                    0.24619518220424652,
                    1
                ],
                "metallicFactor" : 0
            }
        }
    ],
    "meshes" : [
        {
            "name" : "Cylinder.001",
            "primitives" : [
                {
                    "attributes" : {
                        "POSITION" : 0,
                        "NORMAL" : 1,
                        "TEXCOORD_0" : 2
                    },
                    "indices" : 3,
                    "material" : 0
                },
                {
                    "attributes" : {
                        "POSITION" : 4,
                        "NORMAL" : 5,
                        "TEXCOORD_0" : 6
                    },
                    "indices" : 7,
                    "material" : 1
                },
                {
                    "attributes" : {
                        "POSITION" : 8,
                        "NORMAL" : 9,
                        "TEXCOORD_0" : 10
                    },
                    "indices" : 11,
                    "material" : 2
                }
            ]
        }
    ],
    "accessors" : [
        {
            "bufferView" : 0,
            "componentType" : 5126,
            "count" : 876,
            "max" : [
                0.8908387422561646,
                0.266998827457428,
                -0.1480734944343567
            ],
            "min" : [
                -0.9625611305236816,
                -0.6439129114151001,
                -0.7324153184890747
            ],
            "type" : "VEC3"
        },
        {
            "bufferView" : 1,
            "componentType" : 5126,
            "count" : 876,
            "type" : "VEC3"
        },
        {
            "bufferView" : 2,
            "componentType" : 5126,
            "count" : 876,
            "type" : "VEC2"
        },
        {
            "bufferView" : 3,
            "componentType" : 5123,
            "count" : 3366,
            "type" : "SCALAR"
        },
        {
            "bufferView" : 4,
            "componentType" : 5126,
            "count" : 240,
            "max" : [
                0.7670788764953613,
                0.1416112184524536,
                0.0013824012130498886
            ],
            "min" : [
                -0.8292794227600098,
                -0.523219108581543,
                -0.2263328582048416
            ],
            "type" : "VEC3"
        },
        {
            "bufferView" : 5,
            "componentType" : 5126,
            "count" : 240,
            "type" : "VEC3"
        },
        {
            "bufferView" : 6,
            "componentType" : 5126,
            "count" : 240,
            "type" : "VEC2"
        },
        {
            "bufferView" : 7,
            "componentType" : 5123,
            "count" : 612,
            "type" : "SCALAR"
        },
        {
            "bufferView" : 8,
            "componentType" : 5126,
            "count" : 459,
            "max" : [
                -0.19933538138866425,
                0.7154113054275513,
                0.00638415664434433
            ],
            "min" : [
                -0.7254877090454102,
                0.06081924960017204,
                -0.1971404254436493
            ],
            "type" : "VEC3"
        },
        {
            "bufferView" : 9,
            "componentType" : 5126,
            "count" : 459,
            "type" : "VEC3"
        },
        {
            "bufferView" : 10,
            "componentType" : 5126,
            "count" : 459,
            "type" : "VEC2"
        },
        {
            "bufferView" : 11,
            "componentType" : 5123,
            "count" : 1656,
            "type" : "SCALAR"
        }
    ],
    "bufferViews" : [
        {
            "buffer" : 0,
            "byteLength" : 10512,
            "byteOffset" : 0
        },
        {
            "buffer" : 0,
            "byteLength" : 10512,
            "byteOffset" : 10512
        },
        {
            "buffer" : 0,
            "byteLength" : 7008,
            "byteOffset" : 21024
        },
        {
            "buffer" : 0,
            "byteLength" : 6732,
            "byteOffset" : 28032
        },
        {
            "buffer" : 0,
            "byteLength" : 2880,
            "byteOffset" : 34764
        },
        {
            "buffer" : 0,
            "byteLength" : 2880,
            "byteOffset" : 37644
        },
        {
            "buffer" : 0,
            "byteLength" : 1920,
            "byteOffset" : 40524
        },
        {
            "buffer" : 0,
            "byteLength" : 1224,
            "byteOffset" : 42444
        },
        {
            "buffer" : 0,
            "byteLength" : 5508,
            "byteOffset" : 43668
        },
        {
            "buffer" : 0,
            "byteLength" : 5508,
            "byteOffset" : 49176
        },
        {
            "buffer" : 0,
            "byteLength" : 3672,
            "byteOffset" : 54684
        },
        {
            "buffer" : 0,
            "byteLength" : 3312,
            "byteOffset" : 58356
        }
    ],
    "buffers" : [
        {
            "byteLength" : 61668,
            "uri" : "data:application/octet-stream;base64,"
        }
    ]
}
