{
    "asset" : {
        "generator" : "Khronos glTF Blender I/O v1.8.19",
        "version" : "2.0"
    },
    "scene" : 0,
    "scenes" : [
        {
            "name" : "Scene",
            "nodes" : [
                3
            ]
        }
    ],
    "nodes" : [
        {
            "mesh" : 0,
            "name" : "Object_3",
            "rotation" : [
                0,
                0,
                1,
                2.6618825359037146e-05
            ],
            "scale" : [
                1.5607242584228516,
                1.5607242584228516,
                1.5607243776321411
            ],
            "translation" : [
                79.93446350097656,
                73.5147476196289,
                5.507701644091867e-06
            ]
        },
        {
            "children" : [
                0
            ],
            "name" : "Object_2.001"
        },
        {
            "children" : [
                1
            ],
            "name" : "VoxRoot.001"
        },
        {
            "children" : [
                2
            ],
            "name" : "Sketchfab_model.002",
            "rotation" : [
                -0.4961400330066681,
                -0.5038304328918457,
                -0.5038304328918457,
                0.4961400330066681
            ],
            "scale" : [
                0.19999998807907104,
                0.19999998807907104,
                0.19999998807907104
            ],
            "translation" : [
                -6,
                0,
                -6.399779319763184
            ]
        }
    ],
    "materials" : [
        {
            "doubleSided" : true,
            "name" : "Scene_-_Root",
            "pbrMetallicRoughness" : {
                "metallicFactor" : 0,
                "roughnessFactor" : 0.6000000238418579
            }
        }
    ],
    "meshes" : [
        {
            "name" : "Object_0.003",
            "primitives" : [
                {
                    "attributes" : {
                        "POSITION" : 0,
                        "NORMAL" : 1,
                        "COLOR_0" : 2
                    },
                    "indices" : 3,
                    "material" : 0
                }
            ]
        }
    ],
    "accessors" : [
        {
            "bufferView" : 0,
            "componentType" : 5126,
            "count" : 3581,
            "max" : [
                37.5,
                47.5,
                28.5
            ],
            "min" : [
                24.5,
                20.5,
                -0.5
            ],
            "type" : "VEC3"
        },
        {
            "bufferView" : 1,
            "componentType" : 5126,
            "count" : 3581,
            "type" : "VEC3"
        },
        {
            "bufferView" : 2,
            "componentType" : 5123,
            "count" : 3581,
            "normalized" : true,
            "type" : "VEC4"
        },
        {
            "bufferView" : 3,
            "componentType" : 5123,
            "count" : 10488,
            "type" : "SCALAR"
        }
    ],
    "bufferViews" : [
        {
            "buffer" : 0,
            "byteLength" : 42972,
            "byteOffset" : 0
        },
        {
            "buffer" : 0,
            "byteLength" : 42972,
            "byteOffset" : 42972
        },
        {
            "buffer" : 0,
            "byteLength" : 28648,
            "byteOffset" : 85944
        },
        {
            "buffer" : 0,
            "byteLength" : 20976,
            "byteOffset" : 114592
        }
    ],
    "buffers" : [
        {
            "byteLength" : 135568,
            "uri" : "data:application/octet-stream;base64,"
        }
    ]
}
