{
    "asset" : {
        "generator" : "Khronos glTF Blender I/O v1.8.19",
        "version" : "2.0"
    },
    "scene" : 0,
    "scenes" : [
        {
            "name" : "Scene",
            "nodes" : [
                0,
                1,
                2,
                3
            ]
        }
    ],
    "nodes" : [
        {
            "mesh" : 0,
            "name" : "Cube.012",
            "scale" : [
                0.5401187539100647,
                0.9964680075645447,
                0.5401187539100647
            ],
            "translation" : [
                -0.5629847645759583,
                -1.2356352806091309,
                -0.6936330795288086
            ]
        },
        {
            "mesh" : 1,
            "name" : "Cube.013",
            "scale" : [
                0.48920121788978577,
                0.9964680075645447,
                0.48920121788978577
            ],
            "translation" : [
                0.604254961013794,
                -1.2363660335540771,
                0.5055379867553711
            ]
        },
        {
            "mesh" : 2,
            "name" : "Cube.014",
            "scale" : [
                0.20161400735378265,
                0.14499999582767487,
                0.20161400735378265
            ],
            "translation" : [
                0.5430985689163208,
                -1.0958154201507568,
                -0.5228883028030396
            ]
        },
        {
            "mesh" : 3,
            "name" : "Cube.015",
            "scale" : [
                0.19947363436222076,
                0.14499999582767487,
                0.19947363436222076
            ],
            "translation" : [
                -0.5145572423934937,
                -1.067322850227356,
                0.3878631591796875
            ]
        }
    ],
    "materials" : [
        {
            "doubleSided" : true,
            "name" : "Material.002",
            "pbrMetallicRoughness" : {
                "baseColorFactor" : [
                    0.800000011920929,
                    0.800000011920929,
                    0.800000011920929,
                    1
                ],
                "metallicFactor" : 0
            }
        },
        {
            "doubleSided" : true,
            "name" : "Material.003",
            "pbrMetallicRoughness" : {
                "baseColorFactor" : [
                    0.800000011920929,
                    0.800000011920929,
                    0.800000011920929,
                    1
                ],
                "metallicFactor" : 0
            }
        },
        {
            "doubleSided" : true,
            "name" : "Material.004",
            "pbrMetallicRoughness" : {
                "baseColorFactor" : [
                    0.800000011920929,
                    0.800000011920929,
                    0.800000011920929,
                    1
                ],
                "metallicFactor" : 0
            }
        }
    ],
    "meshes" : [
        {
            "name" : "Cube.018",
            "primitives" : [
                {
                    "attributes" : {
                        "POSITION" : 0,
                        "NORMAL" : 1,
                        "TEXCOORD_0" : 2
                    },
                    "indices" : 3,
                    "material" : 0
                }
            ]
        },
        {
            "name" : "Cube.019",
            "primitives" : [
                {
                    "attributes" : {
                        "POSITION" : 4,
                        "NORMAL" : 5,
                        "TEXCOORD_0" : 6
                    },
                    "indices" : 7,
                    "material" : 1
                }
            ]
        },
        {
            "name" : "Cube.020",
            "primitives" : [
                {
                    "attributes" : {
                        "POSITION" : 8,
                        "NORMAL" : 9,
                        "TEXCOORD_0" : 10
                    },
                    "indices" : 11,
                    "material" : 2
                }
            ]
        },
        {
            "name" : "Cube.001",
            "primitives" : [
                {
                    "attributes" : {
                        "POSITION" : 12,
                        "NORMAL" : 13,
                        "TEXCOORD_0" : 14
                    },
                    "indices" : 11,
                    "material" : 2
                }
            ]
        }
    ],
    "accessors" : [
        {
            "bufferView" : 0,
            "componentType" : 5126,
            "count" : 108,
            "max" : [
                1,
                1,
                1
            ],
            "min" : [
                -1,
                -1,
                -1
            ],
            "type" : "VEC3"
        },
        {
            "bufferView" : 1,
            "componentType" : 5126,
            "count" : 108,
            "type" : "VEC3"
        },
        {
            "bufferView" : 2,
            "componentType" : 5126,
            "count" : 108,
            "type" : "VEC2"
        },
        {
            "bufferView" : 3,
            "componentType" : 5123,
            "count" : 204,
            "type" : "SCALAR"
        },
        {
            "bufferView" : 4,
            "componentType" : 5126,
            "count" : 78,
            "max" : [
                1,
                1,
                1
            ],
            "min" : [
                -1,
                -1,
                -1
            ],
            "type" : "VEC3"
        },
        {
            "bufferView" : 5,
            "componentType" : 5126,
            "count" : 78,
            "type" : "VEC3"
        },
        {
            "bufferView" : 6,
            "componentType" : 5126,
            "count" : 78,
            "type" : "VEC2"
        },
        {
            "bufferView" : 7,
            "componentType" : 5123,
            "count" : 144,
            "type" : "SCALAR"
        },
        {
            "bufferView" : 8,
            "componentType" : 5126,
            "count" : 128,
            "max" : [
                3.2458629608154297,
                5.842301845550537,
                2.7129433155059814
            ],
            "min" : [
                -3.3897035121917725,
                -7.765335559844971,
                -2.7129433155059814
            ],
            "type" : "VEC3"
        },
        {
            "bufferView" : 9,
            "componentType" : 5126,
            "count" : 128,
            "type" : "VEC3"
        },
        {
            "bufferView" : 10,
            "componentType" : 5126,
            "count" : 128,
            "type" : "VEC2"
        },
        {
            "bufferView" : 11,
            "componentType" : 5123,
            "count" : 228,
            "type" : "SCALAR"
        },
        {
            "bufferView" : 12,
            "componentType" : 5126,
            "count" : 128,
            "max" : [
                3.2458629608154297,
                5.842301845550537,
                2.7129433155059814
            ],
            "min" : [
                -3.3897035121917725,
                -7.765335559844971,
                -2.7129433155059814
            ],
            "type" : "VEC3"
        },
        {
            "bufferView" : 13,
            "componentType" : 5126,
            "count" : 128,
            "type" : "VEC3"
        },
        {
            "bufferView" : 14,
            "componentType" : 5126,
            "count" : 128,
            "type" : "VEC2"
        }
    ],
    "bufferViews" : [
        {
            "buffer" : 0,
            "byteLength" : 1296,
            "byteOffset" : 0
        },
        {
            "buffer" : 0,
            "byteLength" : 1296,
            "byteOffset" : 1296
        },
        {
            "buffer" : 0,
            "byteLength" : 864,
            "byteOffset" : 2592
        },
        {
            "buffer" : 0,
            "byteLength" : 408,
            "byteOffset" : 3456
        },
        {
            "buffer" : 0,
            "byteLength" : 936,
            "byteOffset" : 3864
        },
        {
            "buffer" : 0,
            "byteLength" : 936,
            "byteOffset" : 4800
        },
        {
            "buffer" : 0,
            "byteLength" : 624,
            "byteOffset" : 5736
        },
        {
            "buffer" : 0,
            "byteLength" : 288,
            "byteOffset" : 6360
        },
        {
            "buffer" : 0,
            "byteLength" : 1536,
            "byteOffset" : 6648
        },
        {
            "buffer" : 0,
            "byteLength" : 1536,
            "byteOffset" : 8184
        },
        {
            "buffer" : 0,
            "byteLength" : 1024,
            "byteOffset" : 9720
        },
        {
            "buffer" : 0,
            "byteLength" : 456,
            "byteOffset" : 10744
        },
        {
            "buffer" : 0,
            "byteLength" : 1536,
            "byteOffset" : 11200
        },
        {
            "buffer" : 0,
            "byteLength" : 1536,
            "byteOffset" : 12736
        },
        {
            "buffer" : 0,
            "byteLength" : 1024,
            "byteOffset" : 14272
        }
    ],
    "buffers" : [
        {
            "byteLength" : 15296,
            "uri" : "data:application/octet-stream;base64,"
        }
    ]
}
