{
    "asset" : {
        "generator" : "Khronos glTF Blender I/O v1.8.19",
        "version" : "2.0"
    },
    "scene" : 0,
    "scenes" : [
        {
            "name" : "Scene",
            "nodes" : [
                0,
                1,
                2,
                3,
                4
            ]
        }
    ],
    "nodes" : [
        {
            "mesh" : 0,
            "name" : "Cube",
            "scale" : [
                1.069387674331665,
                -0.10693879425525665,
                1.069387674331665
            ],
            "translation" : [
                -0.049915313720703125,
                -0.11045315861701965,
                0
            ]
        },
        {
            "mesh" : 1,
            "name" : "Cube.001",
            "scale" : [
                0.19947363436222076,
                0.27017420530319214,
                0.19947363436222076
            ],
            "translation" : [
                -0.6145573854446411,
                -1.795815348625183,
                0.3878631591796875
            ]
        },
        {
            "mesh" : 2,
            "name" : "Cube.012",
            "scale" : [
                0.5401187539100647,
                1.8327561616897583,
                0.5401187539100647
            ],
            "translation" : [
                -0.5629847645759583,
                -1.9356352090835571,
                -0.6936330795288086
            ]
        },
        {
            "mesh" : 3,
            "name" : "Cube.013",
            "scale" : [
                0.48920124769210815,
                1.7907476425170898,
                0.48920124769210815
            ],
            "translation" : [
                0.504254937171936,
                -2.0363659858703613,
                0.5873154401779175
            ]
        },
        {
            "mesh" : 4,
            "name" : "Cube.014",
            "scale" : [
                0.20161400735378265,
                0.2730732262134552,
                0.20161400735378265
            ],
            "translation" : [
                0.5430985689163208,
                -1.795815348625183,
                -0.5883102416992188
            ]
        }
    ],
    "materials" : [
        {
            "doubleSided" : true,
            "name" : "Material",
            "pbrMetallicRoughness" : {
                "baseColorFactor" : [
                    1,
                    0.6239603161811829,
                    0.09989888966083527,
                    1
                ],
                "metallicFactor" : 0
            }
        },
        {
            "doubleSided" : true,
            "name" : "Material.004",
            "pbrMetallicRoughness" : {
                "baseColorFactor" : [
                    0.800000011920929,
                    0.800000011920929,
                    0.800000011920929,
                    1
                ],
                "metallicFactor" : 0
            }
        },
        {
            "doubleSided" : true,
            "name" : "Material.002",
            "pbrMetallicRoughness" : {
                "baseColorFactor" : [
                    0.800000011920929,
                    0.800000011920929,
                    0.800000011920929,
                    1
                ],
                "metallicFactor" : 0
            }
        },
        {
            "doubleSided" : true,
            "name" : "Material.003",
            "pbrMetallicRoughness" : {
                "baseColorFactor" : [
                    0.800000011920929,
                    0.800000011920929,
                    0.800000011920929,
                    1
                ],
                "metallicFactor" : 0
            }
        }
    ],
    "meshes" : [
        {
            "name" : "Cube",
            "primitives" : [
                {
                    "attributes" : {
                        "POSITION" : 0,
                        "NORMAL" : 1,
                        "TEXCOORD_0" : 2
                    },
                    "indices" : 3,
                    "material" : 0
                }
            ]
        },
        {
            "name" : "Cube.017",
            "primitives" : [
                {
                    "attributes" : {
                        "POSITION" : 4,
                        "NORMAL" : 5,
                        "TEXCOORD_0" : 6
                    },
                    "indices" : 7,
                    "material" : 1
                }
            ]
        },
        {
            "name" : "Cube.018",
            "primitives" : [
                {
                    "attributes" : {
                        "POSITION" : 8,
                        "NORMAL" : 9,
                        "TEXCOORD_0" : 10
                    },
                    "indices" : 11,
                    "material" : 2
                }
            ]
        },
        {
            "name" : "Cube.019",
            "primitives" : [
                {
                    "attributes" : {
                        "POSITION" : 12,
                        "NORMAL" : 13,
                        "TEXCOORD_0" : 14
                    },
                    "indices" : 15,
                    "material" : 3
                }
            ]
        },
        {
            "name" : "Cube.020",
            "primitives" : [
                {
                    "attributes" : {
                        "POSITION" : 16,
                        "NORMAL" : 17,
                        "TEXCOORD_0" : 18
                    },
                    "indices" : 7,
                    "material" : 1
                }
            ]
        }
    ],
    "accessors" : [
        {
            "bufferView" : 0,
            "componentType" : 5126,
            "count" : 311,
            "max" : [
                1.0430296659469604,
                1,
                1
            ],
            "min" : [
                -1,
                -1,
                -1.081009864807129
            ],
            "type" : "VEC3"
        },
        {
            "bufferView" : 1,
            "componentType" : 5126,
            "count" : 311,
            "type" : "VEC3"
        },
        {
            "bufferView" : 2,
            "componentType" : 5126,
            "count" : 311,
            "type" : "VEC2"
        },
        {
            "bufferView" : 3,
            "componentType" : 5123,
            "count" : 516,
            "type" : "SCALAR"
        },
        {
            "bufferView" : 4,
            "componentType" : 5126,
            "count" : 128,
            "max" : [
                3.2458629608154297,
                5.842301845550537,
                2.7129433155059814
            ],
            "min" : [
                -3.3897035121917725,
                -7.765335559844971,
                -2.7129433155059814
            ],
            "type" : "VEC3"
        },
        {
            "bufferView" : 5,
            "componentType" : 5126,
            "count" : 128,
            "type" : "VEC3"
        },
        {
            "bufferView" : 6,
            "componentType" : 5126,
            "count" : 128,
            "type" : "VEC2"
        },
        {
            "bufferView" : 7,
            "componentType" : 5123,
            "count" : 228,
            "type" : "SCALAR"
        },
        {
            "bufferView" : 8,
            "componentType" : 5126,
            "count" : 108,
            "max" : [
                1,
                1,
                1
            ],
            "min" : [
                -1,
                -1,
                -1
            ],
            "type" : "VEC3"
        },
        {
            "bufferView" : 9,
            "componentType" : 5126,
            "count" : 108,
            "type" : "VEC3"
        },
        {
            "bufferView" : 10,
            "componentType" : 5126,
            "count" : 108,
            "type" : "VEC2"
        },
        {
            "bufferView" : 11,
            "componentType" : 5123,
            "count" : 204,
            "type" : "SCALAR"
        },
        {
            "bufferView" : 12,
            "componentType" : 5126,
            "count" : 78,
            "max" : [
                1,
                1,
                1
            ],
            "min" : [
                -1,
                -1,
                -1
            ],
            "type" : "VEC3"
        },
        {
            "bufferView" : 13,
            "componentType" : 5126,
            "count" : 78,
            "type" : "VEC3"
        },
        {
            "bufferView" : 14,
            "componentType" : 5126,
            "count" : 78,
            "type" : "VEC2"
        },
        {
            "bufferView" : 15,
            "componentType" : 5123,
            "count" : 144,
            "type" : "SCALAR"
        },
        {
            "bufferView" : 16,
            "componentType" : 5126,
            "count" : 128,
            "max" : [
                3.2458629608154297,
                5.842301845550537,
                2.7129433155059814
            ],
            "min" : [
                -3.3897035121917725,
                -7.765335559844971,
                -2.7129433155059814
            ],
            "type" : "VEC3"
        },
        {
            "bufferView" : 17,
            "componentType" : 5126,
            "count" : 128,
            "type" : "VEC3"
        },
        {
            "bufferView" : 18,
            "componentType" : 5126,
            "count" : 128,
            "type" : "VEC2"
        }
    ],
    "bufferViews" : [
        {
            "buffer" : 0,
            "byteLength" : 3732,
            "byteOffset" : 0
        },
        {
            "buffer" : 0,
            "byteLength" : 3732,
            "byteOffset" : 3732
        },
        {
            "buffer" : 0,
            "byteLength" : 2488,
            "byteOffset" : 7464
        },
        {
            "buffer" : 0,
            "byteLength" : 1032,
            "byteOffset" : 9952
        },
        {
            "buffer" : 0,
            "byteLength" : 1536,
            "byteOffset" : 10984
        },
        {
            "buffer" : 0,
            "byteLength" : 1536,
            "byteOffset" : 12520
        },
        {
            "buffer" : 0,
            "byteLength" : 1024,
            "byteOffset" : 14056
        },
        {
            "buffer" : 0,
            "byteLength" : 456,
            "byteOffset" : 15080
        },
        {
            "buffer" : 0,
            "byteLength" : 1296,
            "byteOffset" : 15536
        },
        {
            "buffer" : 0,
            "byteLength" : 1296,
            "byteOffset" : 16832
        },
        {
            "buffer" : 0,
            "byteLength" : 864,
            "byteOffset" : 18128
        },
        {
            "buffer" : 0,
            "byteLength" : 408,
            "byteOffset" : 18992
        },
        {
            "buffer" : 0,
            "byteLength" : 936,
            "byteOffset" : 19400
        },
        {
            "buffer" : 0,
            "byteLength" : 936,
            "byteOffset" : 20336
        },
        {
            "buffer" : 0,
            "byteLength" : 624,
            "byteOffset" : 21272
        },
        {
            "buffer" : 0,
            "byteLength" : 288,
            "byteOffset" : 21896
        },
        {
            "buffer" : 0,
            "byteLength" : 1536,
            "byteOffset" : 22184
        },
        {
            "buffer" : 0,
            "byteLength" : 1536,
            "byteOffset" : 23720
        },
        {
            "buffer" : 0,
            "byteLength" : 1024,
            "byteOffset" : 25256
        }
    ],
    "buffers" : [
        {
            "byteLength" : 26280,
            "uri" : "data:application/octet-stream;base64,"
        }
    ]
}
