{
    "asset" : {
        "generator" : "Khronos glTF Blender I/O v1.8.19",
        "version" : "2.0"
    },
    "scene" : 0,
    "scenes" : [
        {
            "name" : "Scene",
            "nodes" : [
                0,
                1
            ]
        }
    ],
    "nodes" : [
        {
            "mesh" : 0,
            "name" : "Cylinder",
            "scale" : [
                21.54234504699707,
                21.54234504699707,
                21.54234504699707
            ],
            "translation" : [
                0,
                -21.774627685546875,
                0
            ]
        },
        {
            "mesh" : 1,
            "name" : "Cylinder.001",
            "scale" : [
                21.54234504699707,
                21.54234504699707,
                21.54234504699707
            ],
            "translation" : [
                0,
                -21.774627685546875,
                0
            ]
        }
    ],
    "materials" : [
        {
            "doubleSided" : true,
            "name" : "stone",
            "pbrMetallicRoughness" : {
                "baseColorFactor" : [
                    0.25294268131256104,
                    0.25294268131256104,
                    0.25294268131256104,
                    1
                ],
                "metallicFactor" : 0,
                "roughnessFactor" : 0.5
            }
        },
        {
            "doubleSided" : true,
            "name" : "dirt",
            "pbrMetallicRoughness" : {
                "baseColorFactor" : [
                    0.22025179862976074,
                    0.10733820497989655,
                    0.06468421965837479,
                    1
                ],
                "metallicFactor" : 0,
                "roughnessFactor" : 0.5
            }
        },
        {
            "doubleSided" : true,
            "name" : "grass",
            "pbrMetallicRoughness" : {
                "baseColorFactor" : [
                    0.32814547419548035,
                    0.8000000715255737,
                    0.047232311218976974,
                    1
                ],
                "metallicFactor" : 0,
                "roughnessFactor" : 0.5
            }
        }
    ],
    "meshes" : [
        {
            "name" : "Cylinder",
            "primitives" : [
                {
                    "attributes" : {
                        "POSITION" : 0,
                        "NORMAL" : 1,
                        "TANGENT" : 2,
                        "TEXCOORD_0" : 3
                    },
                    "indices" : 4,
                    "material" : 0
                },
                {
                    "attributes" : {
                        "POSITION" : 5,
                        "NORMAL" : 6,
                        "TANGENT" : 7,
                        "TEXCOORD_0" : 8
                    },
                    "indices" : 9,
                    "material" : 1
                }
            ]
        },
        {
            "name" : "Cylinder.001",
            "primitives" : [
                {
                    "attributes" : {
                        "POSITION" : 10,
                        "NORMAL" : 11,
                        "TANGENT" : 12,
                        "TEXCOORD_0" : 13
                    },
                    "indices" : 14,
                    "material" : 2
                }
            ]
        }
    ],
    "accessors" : [
        {
            "bufferView" : 0,
            "componentType" : 5126,
            "count" : 424,
            "max" : [
                1.0825637578964233,
                0.5227531790733337,
                1.0825637578964233
            ],
            "min" : [
                -1.0840301513671875,
                -1.5905520915985107,
                -1.0836459398269653
            ],
            "type" : "VEC3"
        },
        {
            "bufferView" : 1,
            "componentType" : 5126,
            "count" : 424,
            "type" : "VEC3"
        },
        {
            "bufferView" : 2,
            "componentType" : 5126,
            "count" : 424,
            "type" : "VEC4"
        },
        {
            "bufferView" : 3,
            "componentType" : 5126,
            "count" : 424,
            "type" : "VEC2"
        },
        {
            "bufferView" : 4,
            "componentType" : 5123,
            "count" : 462,
            "type" : "SCALAR"
        },
        {
            "bufferView" : 5,
            "componentType" : 5126,
            "count" : 258,
            "max" : [
                1.0579001903533936,
                0.8194610476493835,
                1.0579001903533936
            ],
            "min" : [
                -1.0588748455047607,
                0.3367232382297516,
                -1.0615582466125488
            ],
            "type" : "VEC3"
        },
        {
            "bufferView" : 6,
            "componentType" : 5126,
            "count" : 258,
            "type" : "VEC3"
        },
        {
            "bufferView" : 7,
            "componentType" : 5126,
            "count" : 258,
            "type" : "VEC4"
        },
        {
            "bufferView" : 8,
            "componentType" : 5126,
            "count" : 258,
            "type" : "VEC2"
        },
        {
            "bufferView" : 9,
            "componentType" : 5123,
            "count" : 480,
            "type" : "SCALAR"
        },
        {
            "bufferView" : 10,
            "componentType" : 5126,
            "count" : 184,
            "max" : [
                1.0095876455307007,
                1.0027008056640625,
                1.0087817907333374
            ],
            "min" : [
                -1.0086411237716675,
                0.8053286075592041,
                -1.0068068504333496
            ],
            "type" : "VEC3"
        },
        {
            "bufferView" : 11,
            "componentType" : 5126,
            "count" : 184,
            "type" : "VEC3"
        },
        {
            "bufferView" : 12,
            "componentType" : 5126,
            "count" : 184,
            "type" : "VEC4"
        },
        {
            "bufferView" : 13,
            "componentType" : 5126,
            "count" : 184,
            "type" : "VEC2"
        },
        {
            "bufferView" : 14,
            "componentType" : 5123,
            "count" : 252,
            "type" : "SCALAR"
        }
    ],
    "bufferViews" : [
        {
            "buffer" : 0,
            "byteLength" : 5088,
            "byteOffset" : 0
        },
        {
            "buffer" : 0,
            "byteLength" : 5088,
            "byteOffset" : 5088
        },
        {
            "buffer" : 0,
            "byteLength" : 6784,
            "byteOffset" : 10176
        },
        {
            "buffer" : 0,
            "byteLength" : 3392,
            "byteOffset" : 16960
        },
        {
            "buffer" : 0,
            "byteLength" : 924,
            "byteOffset" : 20352
        },
        {
            "buffer" : 0,
            "byteLength" : 3096,
            "byteOffset" : 21276
        },
        {
            "buffer" : 0,
            "byteLength" : 3096,
            "byteOffset" : 24372
        },
        {
            "buffer" : 0,
            "byteLength" : 4128,
            "byteOffset" : 27468
        },
        {
            "buffer" : 0,
            "byteLength" : 2064,
            "byteOffset" : 31596
        },
        {
            "buffer" : 0,
            "byteLength" : 960,
            "byteOffset" : 33660
        },
        {
            "buffer" : 0,
            "byteLength" : 2208,
            "byteOffset" : 34620
        },
        {
            "buffer" : 0,
            "byteLength" : 2208,
            "byteOffset" : 36828
        },
        {
            "buffer" : 0,
            "byteLength" : 2944,
            "byteOffset" : 39036
        },
        {
            "buffer" : 0,
            "byteLength" : 1472,
            "byteOffset" : 41980
        },
        {
            "buffer" : 0,
            "byteLength" : 504,
            "byteOffset" : 43452
        }
    ],
    "buffers" : [
        {
            "byteLength" : 43956,
            "uri" : "data:application/octet-stream;base64,"
        }
    ]
}
