<svg xmlns="http://www.w3.org/2000/svg" version="1.1" xmlns:xlink="http://www.w3.org/1999/xlink" xmlns:svgjs="http://svgjs.com/svgjs" width="16" height="16"><svg width="16" height="16" viewBox="0 0 16 16" fill="none" xmlns="http://www.w3.org/2000/svg">
<path d="M15.6444 0H0.355556C0.261256 0 0.170819 0.0374602 0.10414 0.10414C0.0374602 0.170819 0 0.261256 0 0.355556V15.6444C0 15.7387 0.0374602 15.8292 0.10414 15.8959C0.170819 15.9625 0.261256 16 0.355556 16H15.6444C15.7387 16 15.8292 15.9625 15.8959 15.8959C15.9625 15.8292 16 15.7387 16 15.6444V0.355556C16 0.261256 15.9625 0.170819 15.8959 0.10414C15.8292 0.0374602 15.7387 0 15.6444 0ZM11.0626 12.8375H3.16249V3.16249H12.8372V12.8372H11.0626V12.8375ZM2.62916 8.75413H0.711111V7.24587H2.62916V8.75413ZM2.62916 6.71253H0.711111V5.20427H2.62916V6.71253ZM0.711111 9.28747H2.62916V10.7957H0.711111V9.28747ZM2.62916 4.67076H0.711111V3.16249H2.62916V4.67076ZM0.711111 11.3292H2.62916V12.8375H0.711111V11.3292ZM13.3708 7.24587H15.2889V8.75413H13.3708V7.24587ZM13.3708 6.71253V5.20427H15.2889V6.71253H13.3708ZM13.3708 9.28747H15.2889V10.7957H13.3708V9.28747ZM15.2889 4.67076H13.3708V3.16249H15.2889V4.67076ZM13.3708 11.3292H15.2889V12.8375H13.3708V11.3292ZM15.2889 0.711111V2.62916H13.3708V0.711111H15.2889ZM12.8375 0.711111V2.62916H11.3292V0.711111H12.8375ZM10.7959 0.711111V2.62916H9.28764V0.711111H10.7959ZM8.75413 0.711111V2.62916H7.24587V0.711111H8.75413ZM6.71253 0.711111V2.62916H5.20427V0.711111H6.71253ZM4.67076 0.711111V2.62916H3.16249V0.711111H4.67076ZM2.62916 2.62916H0.711111V0.711111H2.62916V2.62916ZM0.711111 15.2889V13.3708H2.62916V15.2889H0.711111ZM3.16249 15.2889V13.3708H4.67076V15.2889H3.16249ZM5.20409 15.2889V13.3708H6.71236V15.2889H5.20409ZM7.24587 15.2889V13.3708H8.75413V15.2889H7.24587ZM9.28747 15.2889V13.3708H10.7957V15.2889H9.28747ZM11.3292 15.2889V13.3708H12.8375V15.2889H11.3292ZM13.3708 13.3708H15.2889V15.2889H13.3708V13.3708Z" fill="#232323"></path>
<path d="M14.7221 13.6884C14.6721 13.6384 14.6043 13.6104 14.5336 13.6104C14.4629 13.6104 14.395 13.6384 14.345 13.6884L13.8476 14.1858C13.7976 14.2359 13.7695 14.3037 13.7695 14.3744C13.7695 14.4451 13.7976 14.5129 13.8476 14.5629L14.345 15.0603C14.3971 15.1124 14.4654 15.1384 14.5337 15.1384C14.6019 15.1384 14.6702 15.1124 14.7223 15.0603C14.7723 15.0103 14.8004 14.9425 14.8004 14.8718C14.8004 14.8011 14.7723 14.7333 14.7223 14.6833L14.4135 14.3745L14.7223 14.0657C14.7723 14.0156 14.8003 13.9478 14.8003 13.877C14.8002 13.8063 14.7721 13.7384 14.7221 13.6884Z" fill="#232323"></path>
<path d="M5.95825 14.9223C6.26095 14.9223 6.50633 14.677 6.50633 14.3743C6.50633 14.0716 6.26095 13.8262 5.95825 13.8262C5.65554 13.8262 5.41016 14.0716 5.41016 14.3743C5.41016 14.677 5.65554 14.9223 5.95825 14.9223Z" fill="#232323"></path>
<path d="M10.0432 2.17333C10.3459 2.17333 10.5913 1.92794 10.5913 1.62524C10.5913 1.32254 10.3459 1.07715 10.0432 1.07715C9.7405 1.07715 9.49512 1.32254 9.49512 1.62524C9.49512 1.92794 9.7405 2.17333 10.0432 2.17333Z" fill="#232323"></path>
<path d="M1.14177 6.507H2.11101C2.14621 6.507 2.17466 6.47856 2.17466 6.44336V5.47429C2.17466 5.45741 2.16795 5.44122 2.15602 5.42929C2.14408 5.41735 2.12789 5.41064 2.11101 5.41064H1.14177C1.12489 5.41064 1.1087 5.41735 1.09677 5.42929C1.08483 5.44122 1.07812 5.45741 1.07812 5.47429V6.44353C1.07812 6.47856 1.10657 6.507 1.14177 6.507ZM14.8595 9.49402H13.8904C13.8735 9.49402 13.8573 9.50073 13.8454 9.51266C13.8335 9.5246 13.8267 9.54079 13.8267 9.55767V10.5269C13.8267 10.5621 13.8552 10.5906 13.8904 10.5906H14.8596C14.8948 10.5906 14.9233 10.5621 14.9233 10.5269V9.55767C14.9232 9.54078 14.9164 9.52462 14.9045 9.5127C14.8925 9.50078 14.8763 9.49407 14.8595 9.49402Z" fill="#232323"></path>
<path d="M6.69299 7.03832C6.88317 7.03832 7.03734 6.88415 7.03734 6.69396C7.03734 6.50378 6.88317 6.34961 6.69299 6.34961C6.50281 6.34961 6.34863 6.50378 6.34863 6.69396C6.34863 6.88415 6.50281 7.03832 6.69299 7.03832Z" fill="#232323"></path>
<path d="M8.46422 6.50547L6.88254 4.92378C6.83253 4.87379 6.76471 4.8457 6.694 4.8457C6.62329 4.8457 6.55548 4.87379 6.50547 4.92378L4.92378 6.50547C4.87379 6.55548 4.8457 6.62329 4.8457 6.694C4.8457 6.76471 4.87379 6.83253 4.92378 6.88254L6.50547 8.4644C6.53023 8.48918 6.55964 8.50884 6.592 8.52225C6.62437 8.53566 6.65906 8.54257 6.69409 8.54257C6.72912 8.54257 6.76381 8.53566 6.79618 8.52225C6.82854 8.50884 6.85795 8.48918 6.88271 8.4644L8.4644 6.88254C8.51437 6.8325 8.54242 6.76468 8.54239 6.69397C8.54236 6.62325 8.51424 6.55545 8.46422 6.50547ZM6.69391 7.89871L5.48929 6.69409L6.69391 5.48947L7.89854 6.69409L6.69391 7.89871Z" fill="#232323"></path>
<path d="M8.96238 9.26509C9.12929 9.26509 9.2646 9.12978 9.2646 8.96287C9.2646 8.79595 9.12929 8.66064 8.96238 8.66064C8.79547 8.66064 8.66016 8.79595 8.66016 8.96287C8.66016 9.12978 8.79547 9.26509 8.96238 9.26509Z" fill="#232323"></path>
<path d="M9.64988 9.9272C9.81679 9.9272 9.9521 9.79189 9.9521 9.62498C9.9521 9.45806 9.81679 9.32275 9.64988 9.32275C9.48297 9.32275 9.34766 9.45806 9.34766 9.62498C9.34766 9.79189 9.48297 9.9272 9.64988 9.9272Z" fill="#232323"></path>
<path d="M10.4257 7.9209H8.18854C8.11782 7.9209 8.04999 7.94899 7.99998 7.999C7.94997 8.04901 7.92188 8.11684 7.92188 8.18757V10.4245C7.92188 10.4953 7.94997 10.5631 7.99998 10.6131C8.04999 10.6631 8.11782 10.6912 8.18854 10.6912H10.4257C10.4964 10.6912 10.5642 10.6631 10.6143 10.6131C10.6643 10.5631 10.6924 10.4953 10.6924 10.4245V8.18757C10.6924 8.11684 10.6643 8.04901 10.6143 7.999C10.5642 7.94899 10.4964 7.9209 10.4257 7.9209ZM10.159 10.1579H8.45521V8.45423H10.159V10.1579Z" fill="#232323"></path>
</svg><style>@media (prefers-color-scheme: light) { :root { filter: none; } }
@media (prefers-color-scheme: dark) { :root { filter: invert(100%); } }
</style></svg>