{
    "asset" : {
        "generator" : "Khronos glTF Blender I/O v1.8.19",
        "version" : "2.0"
    },
    "scene" : 0,
    "scenes" : [
        {
            "name" : "Scene",
            "nodes" : [
                8
            ]
        }
    ],
    "nodes" : [
        {
            "mesh" : 0,
            "name" : "Object_5",
            "rotation" : [
                0,
                0,
                1,
                2.6618774427333847e-05
            ],
            "scale" : [
                2.136631488800049,
                2.136631488800049,
                2.136631488800049
            ],
            "translation" : [
                55.822383880615234,
                46.722721099853516,
                0.7054993510246277
            ]
        },
        {
            "mesh" : 1,
            "name" : "Object_6",
            "rotation" : [
                0,
                0,
                1,
                2.6618774427333847e-05
            ],
            "scale" : [
                2.136631488800049,
                2.136631488800049,
                2.136631488800049
            ],
            "translation" : [
                55.822383880615234,
                46.722721099853516,
                0.7054993510246277
            ]
        },
        {
            "mesh" : 2,
            "name" : "Object_7",
            "rotation" : [
                0,
                0,
                1,
                2.6618774427333847e-05
            ],
            "scale" : [
                2.136631488800049,
                2.136631488800049,
                2.136631488800049
            ],
            "translation" : [
                55.822383880615234,
                46.722721099853516,
                0.7054993510246277
            ]
        },
        {
            "mesh" : 3,
            "name" : "Object_8",
            "rotation" : [
                0,
                0,
                1,
                2.6618774427333847e-05
            ],
            "scale" : [
                2.136631488800049,
                2.136631488800049,
                2.136631488800049
            ],
            "translation" : [
                55.822383880615234,
                46.722721099853516,
                0.7054993510246277
            ]
        },
        {
            "children" : [
                0,
                1,
                2,
                3
            ],
            "name" : "VoxTransform.001",
            "translation" : [
                0,
                0,
                20
            ]
        },
        {
            "children" : [
                4
            ],
            "name" : "VoxGroup"
        },
        {
            "children" : [
                5
            ],
            "name" : "VoxTransform"
        },
        {
            "children" : [
                6
            ],
            "name" : "VoxRoot"
        },
        {
            "children" : [
                7
            ],
            "name" : "Sketchfab_model",
            "rotation" : [
                -0.7071068286895752,
                0,
                0,
                0.7071068286895752
            ],
            "scale" : [
                0.19999998807907104,
                0.19999998807907104,
                0.19999998807907104
            ],
            "translation" : [
                -3.799999952316284,
                -3.876943826675415,
                0
            ]
        }
    ],
    "materials" : [
        {
            "doubleSided" : true,
            "name" : "VoxMaterial_1",
            "pbrMetallicRoughness" : {
                "baseColorFactor" : [
                    0.800000011920929,
                    0.800000011920929,
                    0.800000011920929,
                    1
                ],
                "metallicFactor" : 0,
                "roughnessFactor" : 0.6000000238418579
            }
        },
        {
            "doubleSided" : true,
            "name" : "VoxMaterial_54",
            "pbrMetallicRoughness" : {
                "baseColorFactor" : [
                    0.800000011920929,
                    0.800000011920929,
                    0.800000011920929,
                    1
                ],
                "metallicFactor" : 0,
                "roughnessFactor" : 0.6000000238418579
            }
        },
        {
            "doubleSided" : true,
            "name" : "VoxMaterial_235",
            "pbrMetallicRoughness" : {
                "baseColorFactor" : [
                    0.800000011920929,
                    0.800000011920929,
                    0.800000011920929,
                    1
                ],
                "metallicFactor" : 0,
                "roughnessFactor" : 0.6000000238418579
            }
        },
        {
            "doubleSided" : true,
            "name" : "VoxMaterial_255",
            "pbrMetallicRoughness" : {
                "baseColorFactor" : [
                    0.800000011920929,
                    0.800000011920929,
                    0.800000011920929,
                    1
                ],
                "metallicFactor" : 0,
                "roughnessFactor" : 0.6000000238418579
            }
        }
    ],
    "meshes" : [
        {
            "name" : "Object_0.001",
            "primitives" : [
                {
                    "attributes" : {
                        "POSITION" : 0,
                        "NORMAL" : 1,
                        "COLOR_0" : 2
                    },
                    "indices" : 3,
                    "material" : 0
                }
            ]
        },
        {
            "name" : "Object_1",
            "primitives" : [
                {
                    "attributes" : {
                        "POSITION" : 4,
                        "NORMAL" : 5,
                        "COLOR_0" : 6
                    },
                    "indices" : 7,
                    "material" : 1
                }
            ]
        },
        {
            "name" : "Object_2",
            "primitives" : [
                {
                    "attributes" : {
                        "POSITION" : 8,
                        "NORMAL" : 9,
                        "COLOR_0" : 10
                    },
                    "indices" : 11,
                    "material" : 2
                }
            ]
        },
        {
            "name" : "Object_3",
            "primitives" : [
                {
                    "attributes" : {
                        "POSITION" : 12,
                        "NORMAL" : 13,
                        "COLOR_0" : 14
                    },
                    "indices" : 15,
                    "material" : 3
                }
            ]
        }
    ],
    "accessors" : [
        {
            "bufferView" : 0,
            "componentType" : 5126,
            "count" : 130,
            "max" : [
                14.5,
                26.5,
                14.5
            ],
            "min" : [
                14.5,
                17.5,
                2.5
            ],
            "type" : "VEC3"
        },
        {
            "bufferView" : 1,
            "componentType" : 5126,
            "count" : 130,
            "type" : "VEC3"
        },
        {
            "bufferView" : 2,
            "componentType" : 5123,
            "count" : 130,
            "normalized" : true,
            "type" : "VEC4"
        },
        {
            "bufferView" : 3,
            "componentType" : 5123,
            "count" : 618,
            "type" : "SCALAR"
        },
        {
            "bufferView" : 4,
            "componentType" : 5126,
            "count" : 304,
            "max" : [
                21.5,
                27.5,
                12.5
            ],
            "min" : [
                12.5,
                16.5,
                -0.5
            ],
            "type" : "VEC3"
        },
        {
            "bufferView" : 5,
            "componentType" : 5126,
            "count" : 304,
            "type" : "VEC3"
        },
        {
            "bufferView" : 6,
            "componentType" : 5123,
            "count" : 304,
            "normalized" : true,
            "type" : "VEC4"
        },
        {
            "bufferView" : 7,
            "componentType" : 5123,
            "count" : 1002,
            "type" : "SCALAR"
        },
        {
            "bufferView" : 8,
            "componentType" : 5126,
            "count" : 28,
            "max" : [
                14.5,
                26.5,
                16.5
            ],
            "min" : [
                14.5,
                17.5,
                14.5
            ],
            "type" : "VEC3"
        },
        {
            "bufferView" : 9,
            "componentType" : 5126,
            "count" : 28,
            "type" : "VEC3"
        },
        {
            "bufferView" : 10,
            "componentType" : 5123,
            "count" : 28,
            "normalized" : true,
            "type" : "VEC4"
        },
        {
            "bufferView" : 11,
            "componentType" : 5123,
            "count" : 96,
            "type" : "SCALAR"
        },
        {
            "bufferView" : 12,
            "componentType" : 5126,
            "count" : 1458,
            "max" : [
                23.5,
                29.5,
                18.5
            ],
            "min" : [
                14.5,
                14.5,
                0.5
            ],
            "type" : "VEC3"
        },
        {
            "bufferView" : 13,
            "componentType" : 5126,
            "count" : 1458,
            "type" : "VEC3"
        },
        {
            "bufferView" : 14,
            "componentType" : 5123,
            "count" : 1458,
            "normalized" : true,
            "type" : "VEC4"
        },
        {
            "bufferView" : 15,
            "componentType" : 5123,
            "count" : 5280,
            "type" : "SCALAR"
        }
    ],
    "bufferViews" : [
        {
            "buffer" : 0,
            "byteLength" : 1560,
            "byteOffset" : 0
        },
        {
            "buffer" : 0,
            "byteLength" : 1560,
            "byteOffset" : 1560
        },
        {
            "buffer" : 0,
            "byteLength" : 1040,
            "byteOffset" : 3120
        },
        {
            "buffer" : 0,
            "byteLength" : 1236,
            "byteOffset" : 4160
        },
        {
            "buffer" : 0,
            "byteLength" : 3648,
            "byteOffset" : 5396
        },
        {
            "buffer" : 0,
            "byteLength" : 3648,
            "byteOffset" : 9044
        },
        {
            "buffer" : 0,
            "byteLength" : 2432,
            "byteOffset" : 12692
        },
        {
            "buffer" : 0,
            "byteLength" : 2004,
            "byteOffset" : 15124
        },
        {
            "buffer" : 0,
            "byteLength" : 336,
            "byteOffset" : 17128
        },
        {
            "buffer" : 0,
            "byteLength" : 336,
            "byteOffset" : 17464
        },
        {
            "buffer" : 0,
            "byteLength" : 224,
            "byteOffset" : 17800
        },
        {
            "buffer" : 0,
            "byteLength" : 192,
            "byteOffset" : 18024
        },
        {
            "buffer" : 0,
            "byteLength" : 17496,
            "byteOffset" : 18216
        },
        {
            "buffer" : 0,
            "byteLength" : 17496,
            "byteOffset" : 35712
        },
        {
            "buffer" : 0,
            "byteLength" : 11664,
            "byteOffset" : 53208
        },
        {
            "buffer" : 0,
            "byteLength" : 10560,
            "byteOffset" : 64872
        }
    ],
    "buffers" : [
        {
            "byteLength" : 75432,
            "uri" : "data:application/octet-stream;base64,"
        }
    ]
}
