{
    "asset" : {
        "generator" : "Khronos glTF Blender I/O v1.8.19",
        "version" : "2.0"
    },
    "scene" : 0,
    "scenes" : [
        {
            "name" : "Scene",
            "nodes" : [
                0
            ]
        }
    ],
    "nodes" : [
        {
            "mesh" : 0,
            "name" : "IslandsBoat-Mesh.001",
            "rotation" : [
                0,
                0.7071068286895752,
                0,
                0.7071068286895752
            ],
            "scale" : [
                -0.10000002384185791,
                0.10000002384185791,
                0.10000002384185791
            ],
            "translation" : [
                -0.35923993587493896,
                1.5,
                -0.049085795879364014
            ]
        }
    ],
    "materials" : [
        {
            "doubleSided" : true,
            "name" : "Material",
            "pbrMetallicRoughness" : {
                "baseColorFactor" : [
                    0.1959824115037918,
                    0.10732880234718323,
                    0.05309388414025307,
                    1
                ],
                "metallicFactor" : 0,
                "roughnessFactor" : 0.5
            }
        },
        {
            "doubleSided" : true,
            "name" : "Material.001",
            "pbrMetallicRoughness" : {
                "baseColorFactor" : [
                    0.800000011920929,
                    0.800000011920929,
                    0.800000011920929,
                    1
                ],
                "metallicFactor" : 0,
                "roughnessFactor" : 0.5
            }
        }
    ],
    "meshes" : [
        {
            "name" : "IslandsBoat-Mesh.001",
            "primitives" : [
                {
                    "attributes" : {
                        "POSITION" : 0,
                        "NORMAL" : 1,
                        "TEXCOORD_0" : 2,
                        "TEXCOORD_1" : 3
                    },
                    "indices" : 4,
                    "material" : 0
                },
                {
                    "attributes" : {
                        "POSITION" : 5,
                        "NORMAL" : 6,
                        "TEXCOORD_0" : 7,
                        "TEXCOORD_1" : 8
                    },
                    "indices" : 9,
                    "material" : 1
                }
            ]
        }
    ],
    "accessors" : [
        {
            "bufferView" : 0,
            "componentType" : 5126,
            "count" : 1404,
            "max" : [
                5,
                2,
                13
            ],
            "min" : [
                -4,
                -15,
                -6
            ],
            "type" : "VEC3"
        },
        {
            "bufferView" : 1,
            "componentType" : 5126,
            "count" : 1404,
            "type" : "VEC3"
        },
        {
            "bufferView" : 2,
            "componentType" : 5126,
            "count" : 1404,
            "type" : "VEC2"
        },
        {
            "bufferView" : 3,
            "componentType" : 5126,
            "count" : 1404,
            "type" : "VEC2"
        },
        {
            "bufferView" : 4,
            "componentType" : 5123,
            "count" : 1404,
            "type" : "SCALAR"
        },
        {
            "bufferView" : 5,
            "componentType" : 5126,
            "count" : 240,
            "max" : [
                5,
                1,
                8
            ],
            "min" : [
                -4,
                -8,
                4
            ],
            "type" : "VEC3"
        },
        {
            "bufferView" : 6,
            "componentType" : 5126,
            "count" : 240,
            "type" : "VEC3"
        },
        {
            "bufferView" : 7,
            "componentType" : 5126,
            "count" : 240,
            "type" : "VEC2"
        },
        {
            "bufferView" : 8,
            "componentType" : 5126,
            "count" : 240,
            "type" : "VEC2"
        },
        {
            "bufferView" : 9,
            "componentType" : 5123,
            "count" : 240,
            "type" : "SCALAR"
        }
    ],
    "bufferViews" : [
        {
            "buffer" : 0,
            "byteLength" : 16848,
            "byteOffset" : 0
        },
        {
            "buffer" : 0,
            "byteLength" : 16848,
            "byteOffset" : 16848
        },
        {
            "buffer" : 0,
            "byteLength" : 11232,
            "byteOffset" : 33696
        },
        {
            "buffer" : 0,
            "byteLength" : 11232,
            "byteOffset" : 44928
        },
        {
            "buffer" : 0,
            "byteLength" : 2808,
            "byteOffset" : 56160
        },
        {
            "buffer" : 0,
            "byteLength" : 2880,
            "byteOffset" : 58968
        },
        {
            "buffer" : 0,
            "byteLength" : 2880,
            "byteOffset" : 61848
        },
        {
            "buffer" : 0,
            "byteLength" : 1920,
            "byteOffset" : 64728
        },
        {
            "buffer" : 0,
            "byteLength" : 1920,
            "byteOffset" : 66648
        },
        {
            "buffer" : 0,
            "byteLength" : 480,
            "byteOffset" : 68568
        }
    ],
    "buffers" : [
        {
            "byteLength" : 69048,
            "uri" : "data:application/octet-stream;base64,"
        }
    ]
}
