{
    "asset" : {
        "generator" : "Khronos glTF Blender I/O v1.8.19",
        "version" : "2.0"
    },
    "scene" : 0,
    "scenes" : [
        {
            "name" : "Scene",
            "nodes" : [
                25
            ]
        }
    ],
    "nodes" : [
        {
            "mesh" : 0,
            "name" : "Cloud_01",
            "translation" : [
                7307.69189453125,
                -5099.85595703125,
                -1272.5426025390625
            ]
        },
        {
            "mesh" : 0,
            "name" : "Cloud_01_1",
            "translation" : [
                12238.1748046875,
                -13582.853515625,
                -1272.5426025390625
            ]
        },
        {
            "mesh" : 1,
            "name" : "Cloud_02",
            "translation" : [
                -3077.86669921875,
                -19819.873046875,
                -1272.5426025390625
            ]
        },
        {
            "mesh" : 1,
            "name" : "Cloud_02_1",
            "translation" : [
                27820.267578125,
                -268.4440612792969,
                -1272.5426025390625
            ]
        },
        {
            "mesh" : 1,
            "name" : "Cloud_02_2",
            "translation" : [
                -20258.171875,
                11599.666015625,
                -1272.5426025390625
            ]
        },
        {
            "mesh" : 1,
            "name" : "Cloud_02_3",
            "translation" : [
                -20258.171875,
                -14777.37890625,
                -1272.5426025390625
            ]
        },
        {
            "mesh" : 2,
            "name" : "Cloud_03",
            "translation" : [
                1978.4207763671875,
                -15658.3447265625,
                -1272.5426025390625
            ]
        },
        {
            "mesh" : 2,
            "name" : "Cloud_03_1",
            "translation" : [
                -1637.751708984375,
                9595.7841796875,
                -1272.5426025390625
            ]
        },
        {
            "mesh" : 2,
            "name" : "Cloud_03_2",
            "translation" : [
                3713.23193359375,
                2486.1181640625,
                -1272.5426025390625
            ]
        },
        {
            "mesh" : 2,
            "name" : "Cloud_03_3",
            "translation" : [
                -12860.625,
                1009.43603515625,
                -1272.5426025390625
            ]
        },
        {
            "mesh" : 2,
            "name" : "Cloud_03_4",
            "translation" : [
                15561.0517578125,
                14501.4326171875,
                -1272.5426025390625
            ]
        },
        {
            "mesh" : 2,
            "name" : "Cloud_03_5",
            "translation" : [
                -21438.326171875,
                7391.2294921875,
                -1272.5426025390625
            ]
        },
        {
            "mesh" : 3,
            "name" : "Cloud_04",
            "translation" : [
                54.72564697265625,
                -7851.2392578125,
                -1272.5426025390625
            ]
        },
        {
            "mesh" : 3,
            "name" : "Cloud_04_1",
            "rotation" : [
                0,
                0,
                -1,
                7.549790126404332e-08
            ],
            "translation" : [
                -7024.97705078125,
                -10675.9873046875,
                -1272.5426025390625
            ]
        },
        {
            "mesh" : 3,
            "name" : "Cloud_04_2",
            "translation" : [
                2752.378173828125,
                26285.40625,
                -1272.5426025390625
            ]
        },
        {
            "mesh" : 3,
            "name" : "Cloud_04_3",
            "translation" : [
                24080.9375,
                -11118.943359375,
                -1272.5426025390625
            ]
        },
        {
            "mesh" : 4,
            "name" : "Cloud_05",
            "translation" : [
                -8831.501953125,
                821.98828125,
                -1272.5426025390625
            ]
        },
        {
            "mesh" : 4,
            "name" : "Cloud_05_1",
            "translation" : [
                -2922.613525390625,
                -15502.8779296875,
                -1272.5426025390625
            ]
        },
        {
            "mesh" : 4,
            "name" : "Cloud_05_2",
            "translation" : [
                -341.1701965332031,
                413.7943115234375,
                -1272.5426025390625
            ]
        },
        {
            "mesh" : 4,
            "name" : "Cloud_05_3",
            "translation" : [
                -3296.61376953125,
                433.6702880859375,
                -1272.5426025390625
            ]
        },
        {
            "mesh" : 5,
            "name" : "Cloud_06",
            "translation" : [
                -6141.24853515625,
                -68.70880126953125,
                -1272.5426025390625
            ]
        },
        {
            "mesh" : 5,
            "name" : "Cloud_06_1",
            "translation" : [
                -1253.414794921875,
                -3430.67578125,
                -1272.5426025390625
            ]
        },
        {
            "mesh" : 5,
            "name" : "Cloud_06_2",
            "translation" : [
                2790.01171875,
                985.910400390625,
                -1272.5426025390625
            ]
        },
        {
            "mesh" : 5,
            "name" : "Cloud_06_3",
            "translation" : [
                -420.9447021484375,
                627.078369140625,
                -1272.5426025390625
            ]
        },
        {
            "mesh" : 5,
            "name" : "Cloud_06_4",
            "translation" : [
                -459.2397155761719,
                -870.0297241210938,
                -1272.5426025390625
            ]
        },
        {
            "children" : [
                0,
                1,
                2,
                3,
                4,
                5,
                6,
                7,
                8,
                9,
                10,
                11,
                12,
                13,
                14,
                15,
                16,
                17,
                18,
                19,
                20,
                21,
                22,
                23,
                24
            ],
            "name" : "Clouds",
            "rotation" : [
                0.7071068286895752,
                0,
                0,
                0.7071067094802856
            ],
            "scale" : [
                0.009999999776482582,
                0.009999999776482582,
                0.009999999776482582
            ]
        }
    ],
    "materials" : [
        {
            "doubleSided" : true,
            "name" : "SimpleSky",
            "pbrMetallicRoughness" : {
                "baseColorTexture" : {
                    "index" : 0
                },
                "metallicFactor" : 0,
                "roughnessFactor" : 0.5527864098548889
            }
        }
    ],
    "meshes" : [
        {
            "name" : "Scene.004",
            "primitives" : [
                {
                    "attributes" : {
                        "POSITION" : 0,
                        "NORMAL" : 1,
                        "TEXCOORD_0" : 2
                    },
                    "indices" : 3,
                    "material" : 0
                }
            ]
        },
        {
            "name" : "Scene.003",
            "primitives" : [
                {
                    "attributes" : {
                        "POSITION" : 4,
                        "NORMAL" : 5,
                        "TEXCOORD_0" : 6
                    },
                    "indices" : 7,
                    "material" : 0
                }
            ]
        },
        {
            "name" : "Scene.002",
            "primitives" : [
                {
                    "attributes" : {
                        "POSITION" : 8,
                        "NORMAL" : 9,
                        "TEXCOORD_0" : 10
                    },
                    "indices" : 11,
                    "material" : 0
                }
            ]
        },
        {
            "name" : "Scene.005",
            "primitives" : [
                {
                    "attributes" : {
                        "POSITION" : 12,
                        "NORMAL" : 13,
                        "TEXCOORD_0" : 14
                    },
                    "indices" : 15,
                    "material" : 0
                }
            ]
        },
        {
            "name" : "Scene",
            "primitives" : [
                {
                    "attributes" : {
                        "POSITION" : 16,
                        "NORMAL" : 17,
                        "TEXCOORD_0" : 18
                    },
                    "indices" : 19,
                    "material" : 0
                }
            ]
        },
        {
            "name" : "Scene.001",
            "primitives" : [
                {
                    "attributes" : {
                        "POSITION" : 20,
                        "NORMAL" : 21,
                        "TEXCOORD_0" : 22
                    },
                    "indices" : 23,
                    "material" : 0
                }
            ]
        }
    ],
    "textures" : [
        {
            "sampler" : 0,
            "source" : 0
        }
    ],
    "images" : [
        {
            "bufferView" : 4,
            "mimeType" : "image/png",
            "name" : "SimpleSky"
        }
    ],
    "accessors" : [
        {
            "bufferView" : 0,
            "componentType" : 5126,
            "count" : 229,
            "max" : [
                726.617431640625,
                1968.404052734375,
                463.5784606933594
            ],
            "min" : [
                -726.617431640625,
                -1968.404052734375,
                -463.5784606933594
            ],
            "type" : "VEC3"
        },
        {
            "bufferView" : 1,
            "componentType" : 5126,
            "count" : 229,
            "type" : "VEC3"
        },
        {
            "bufferView" : 2,
            "componentType" : 5126,
            "count" : 229,
            "type" : "VEC2"
        },
        {
            "bufferView" : 3,
            "componentType" : 5123,
            "count" : 375,
            "type" : "SCALAR"
        },
        {
            "bufferView" : 5,
            "componentType" : 5126,
            "count" : 272,
            "max" : [
                707.64404296875,
                2503.984130859375,
                509.03167724609375
            ],
            "min" : [
                -707.64404296875,
                -2503.984130859375,
                -509.03167724609375
            ],
            "type" : "VEC3"
        },
        {
            "bufferView" : 6,
            "componentType" : 5126,
            "count" : 272,
            "type" : "VEC3"
        },
        {
            "bufferView" : 7,
            "componentType" : 5126,
            "count" : 272,
            "type" : "VEC2"
        },
        {
            "bufferView" : 8,
            "componentType" : 5123,
            "count" : 450,
            "type" : "SCALAR"
        },
        {
            "bufferView" : 9,
            "componentType" : 5126,
            "count" : 160,
            "max" : [
                486.5581970214844,
                1481.35791015625,
                296.40863037109375
            ],
            "min" : [
                -486.5581970214844,
                -1481.35791015625,
                -296.40863037109375
            ],
            "type" : "VEC3"
        },
        {
            "bufferView" : 10,
            "componentType" : 5126,
            "count" : 160,
            "type" : "VEC3"
        },
        {
            "bufferView" : 11,
            "componentType" : 5126,
            "count" : 160,
            "type" : "VEC2"
        },
        {
            "bufferView" : 12,
            "componentType" : 5123,
            "count" : 246,
            "type" : "SCALAR"
        },
        {
            "bufferView" : 13,
            "componentType" : 5126,
            "count" : 226,
            "max" : [
                696.86767578125,
                1133.8590087890625,
                379.0347595214844
            ],
            "min" : [
                -696.86767578125,
                -1133.8590087890625,
                -379.0347595214844
            ],
            "type" : "VEC3"
        },
        {
            "bufferView" : 14,
            "componentType" : 5126,
            "count" : 226,
            "type" : "VEC3"
        },
        {
            "bufferView" : 15,
            "componentType" : 5126,
            "count" : 226,
            "type" : "VEC2"
        },
        {
            "bufferView" : 16,
            "componentType" : 5123,
            "count" : 360,
            "type" : "SCALAR"
        },
        {
            "bufferView" : 17,
            "componentType" : 5126,
            "count" : 80,
            "max" : [
                305.9521484375,
                412.8216247558594,
                175.7313232421875
            ],
            "min" : [
                -305.9515380859375,
                -412.8213806152344,
                -175.7313232421875
            ],
            "type" : "VEC3"
        },
        {
            "bufferView" : 18,
            "componentType" : 5126,
            "count" : 80,
            "type" : "VEC3"
        },
        {
            "bufferView" : 19,
            "componentType" : 5126,
            "count" : 80,
            "type" : "VEC2"
        },
        {
            "bufferView" : 20,
            "componentType" : 5123,
            "count" : 138,
            "type" : "SCALAR"
        },
        {
            "bufferView" : 21,
            "componentType" : 5126,
            "count" : 36,
            "max" : [
                194.066162109375,
                213.33250427246094,
                76.78410339355469
            ],
            "min" : [
                -194.066162109375,
                -213.3321990966797,
                -76.78410339355469
            ],
            "type" : "VEC3"
        },
        {
            "bufferView" : 22,
            "componentType" : 5126,
            "count" : 36,
            "type" : "VEC3"
        },
        {
            "bufferView" : 23,
            "componentType" : 5126,
            "count" : 36,
            "type" : "VEC2"
        },
        {
            "bufferView" : 24,
            "componentType" : 5123,
            "count" : 60,
            "type" : "SCALAR"
        }
    ],
    "bufferViews" : [
        {
            "buffer" : 0,
            "byteLength" : 2748,
            "byteOffset" : 0
        },
        {
            "buffer" : 0,
            "byteLength" : 2748,
            "byteOffset" : 2748
        },
        {
            "buffer" : 0,
            "byteLength" : 1832,
            "byteOffset" : 5496
        },
        {
            "buffer" : 0,
            "byteLength" : 750,
            "byteOffset" : 7328
        },
        {
            "buffer" : 0,
            "byteLength" : 20911,
            "byteOffset" : 8080
        },
        {
            "buffer" : 0,
            "byteLength" : 3264,
            "byteOffset" : 28992
        },
        {
            "buffer" : 0,
            "byteLength" : 3264,
            "byteOffset" : 32256
        },
        {
            "buffer" : 0,
            "byteLength" : 2176,
            "byteOffset" : 35520
        },
        {
            "buffer" : 0,
            "byteLength" : 900,
            "byteOffset" : 37696
        },
        {
            "buffer" : 0,
            "byteLength" : 1920,
            "byteOffset" : 38596
        },
        {
            "buffer" : 0,
            "byteLength" : 1920,
            "byteOffset" : 40516
        },
        {
            "buffer" : 0,
            "byteLength" : 1280,
            "byteOffset" : 42436
        },
        {
            "buffer" : 0,
            "byteLength" : 492,
            "byteOffset" : 43716
        },
        {
            "buffer" : 0,
            "byteLength" : 2712,
            "byteOffset" : 44208
        },
        {
            "buffer" : 0,
            "byteLength" : 2712,
            "byteOffset" : 46920
        },
        {
            "buffer" : 0,
            "byteLength" : 1808,
            "byteOffset" : 49632
        },
        {
            "buffer" : 0,
            "byteLength" : 720,
            "byteOffset" : 51440
        },
        {
            "buffer" : 0,
            "byteLength" : 960,
            "byteOffset" : 52160
        },
        {
            "buffer" : 0,
            "byteLength" : 960,
            "byteOffset" : 53120
        },
        {
            "buffer" : 0,
            "byteLength" : 640,
            "byteOffset" : 54080
        },
        {
            "buffer" : 0,
            "byteLength" : 276,
            "byteOffset" : 54720
        },
        {
            "buffer" : 0,
            "byteLength" : 432,
            "byteOffset" : 54996
        },
        {
            "buffer" : 0,
            "byteLength" : 432,
            "byteOffset" : 55428
        },
        {
            "buffer" : 0,
            "byteLength" : 288,
            "byteOffset" : 55860
        },
        {
            "buffer" : 0,
            "byteLength" : 120,
            "byteOffset" : 56148
        }
    ],
    "samplers" : [
        {
            "magFilter" : 9729,
            "minFilter" : 9987
        }
    ],
    "buffers" : [
        {
            "byteLength" : 56268,
            "uri" : "data:application/octet-stream;base64,"
        }
    ]
}
