{
    "asset" : {
        "generator" : "Khronos glTF Blender I/O v1.8.19",
        "version" : "2.0"
    },
    "scene" : 0,
    "scenes" : [
        {
            "name" : "Scene",
            "nodes" : [
                3
            ]
        }
    ],
    "nodes" : [
        {
            "name" : "Moon",
            "rotation" : [
                -0.22113649547100067,
                0.3123222887516022,
                -0.7540128231048584,
                0.5338708758354187
            ]
        },
        {
            "mesh" : 0,
            "name" : "Stars",
            "translation" : [
                -29.176389694213867,
                157.8099365234375,
                -1221.4915771484375
            ]
        },
        {
            "name" : "Sun",
            "rotation" : [
                -0.060054175555706024,
                0.37099069356918335,
                -0.9147849082946777,
                0.1480809599161148
            ]
        },
        {
            "children" : [
                0,
                1,
                2
            ],
            "mesh" : 1,
            "name" : "SkyDome",
            "rotation" : [
                0.7071068286895752,
                0,
                0,
                0.7071067094802856
            ],
            "scale" : [
                0.09999999403953552,
                0.09999999403953552,
                0.09999999403953552
            ]
        }
    ],
    "materials" : [
        {
            "doubleSided" : true,
            "name" : "SimpleSky.001",
            "pbrMetallicRoughness" : {
                "baseColorTexture" : {
                    "index" : 0
                },
                "metallicFactor" : 0,
                "roughnessFactor" : 0.5527864098548889
            }
        }
    ],
    "meshes" : [
        {
            "name" : "Scene.008",
            "primitives" : [
                {
                    "attributes" : {
                        "POSITION" : 0,
                        "NORMAL" : 1,
                        "TEXCOORD_0" : 2
                    },
                    "indices" : 3,
                    "material" : 0
                }
            ]
        },
        {
            "name" : "Scene.006",
            "primitives" : [
                {
                    "attributes" : {
                        "POSITION" : 4,
                        "NORMAL" : 5,
                        "TEXCOORD_0" : 6
                    },
                    "indices" : 7
                }
            ]
        }
    ],
    "textures" : [
        {
            "sampler" : 0,
            "source" : 0
        }
    ],
    "images" : [
        {
            "bufferView" : 4,
            "mimeType" : "image/png",
            "name" : "SimpleSky"
        }
    ],
    "accessors" : [
        {
            "bufferView" : 0,
            "componentType" : 5126,
            "count" : 132,
            "max" : [
                2443.62353515625,
                2361.6240234375,
                1231.025634765625
            ],
            "min" : [
                -2443.62353515625,
                -2361.6240234375,
                -1231.025634765625
            ],
            "type" : "VEC3"
        },
        {
            "bufferView" : 1,
            "componentType" : 5126,
            "count" : 132,
            "type" : "VEC3"
        },
        {
            "bufferView" : 2,
            "componentType" : 5126,
            "count" : 132,
            "type" : "VEC2"
        },
        {
            "bufferView" : 3,
            "componentType" : 5123,
            "count" : 198,
            "type" : "SCALAR"
        },
        {
            "bufferView" : 5,
            "componentType" : 5126,
            "count" : 91,
            "max" : [
                3294.014404296875,
                3294.014404296875,
                0
            ],
            "min" : [
                -3294.014404296875,
                -3294.014404296875,
                -2612.848388671875
            ],
            "type" : "VEC3"
        },
        {
            "bufferView" : 6,
            "componentType" : 5126,
            "count" : 91,
            "type" : "VEC3"
        },
        {
            "bufferView" : 7,
            "componentType" : 5126,
            "count" : 91,
            "type" : "VEC2"
        },
        {
            "bufferView" : 8,
            "componentType" : 5123,
            "count" : 480,
            "type" : "SCALAR"
        }
    ],
    "bufferViews" : [
        {
            "buffer" : 0,
            "byteLength" : 1584,
            "byteOffset" : 0
        },
        {
            "buffer" : 0,
            "byteLength" : 1584,
            "byteOffset" : 1584
        },
        {
            "buffer" : 0,
            "byteLength" : 1056,
            "byteOffset" : 3168
        },
        {
            "buffer" : 0,
            "byteLength" : 396,
            "byteOffset" : 4224
        },
        {
            "buffer" : 0,
            "byteLength" : 20911,
            "byteOffset" : 4620
        },
        {
            "buffer" : 0,
            "byteLength" : 1092,
            "byteOffset" : 25532
        },
        {
            "buffer" : 0,
            "byteLength" : 1092,
            "byteOffset" : 26624
        },
        {
            "buffer" : 0,
            "byteLength" : 728,
            "byteOffset" : 27716
        },
        {
            "buffer" : 0,
            "byteLength" : 960,
            "byteOffset" : 28444
        }
    ],
    "samplers" : [
        {
            "magFilter" : 9729,
            "minFilter" : 9987
        }
    ],
    "buffers" : [
        {
            "byteLength" : 29404,
            "uri" : "data:application/octet-stream;base64,"
        }
    ]
}
