{
    "asset" : {
        "generator" : "Khronos glTF Blender I/O v1.8.19",
        "version" : "2.0"
    },
    "scene" : 0,
    "scenes" : [
        {
            "name" : "Scene",
            "nodes" : [
                0
            ]
        }
    ],
    "nodes" : [
        {
            "mesh" : 0,
            "name" : "Text.002",
            "rotation" : [
                -5.673057330568554e-06,
                -0.999992847442627,
                0,
                0.003781938925385475
            ],
            "scale" : [
                1.5011390447616577,
                1.5011390447616577,
                1.5011390447616577
            ],
            "translation" : [
                0.2246885448694229,
                0.011301644146442413,
                -0.5510622262954712
            ]
        }
    ],
    "materials" : [
        {
            "doubleSided" : true,
            "name" : "White",
            "pbrMetallicRoughness" : {
                "baseColorFactor" : [
                    0.9999988079071045,
                    0.9999989867210388,
                    1,
                    1
                ],
                "metallicFactor" : 0
            }
        }
    ],
    "meshes" : [
        {
            "name" : "parkingText.002",
            "primitives" : [
                {
                    "attributes" : {
                        "POSITION" : 0,
                        "NORMAL" : 1,
                        "TEXCOORD_0" : 2
                    },
                    "indices" : 3,
                    "material" : 0
                }
            ]
        }
    ],
    "accessors" : [
        {
            "bufferView" : 0,
            "componentType" : 5126,
            "count" : 944,
            "max" : [
                0.2900000214576721,
                0,
                0.009000000543892384
            ],
            "min" : [
                0.08000000566244125,
                -0.009999999776482582,
                -0.6910000443458557
            ],
            "type" : "VEC3"
        },
        {
            "bufferView" : 1,
            "componentType" : 5126,
            "count" : 944,
            "type" : "VEC3"
        },
        {
            "bufferView" : 2,
            "componentType" : 5126,
            "count" : 944,
            "type" : "VEC2"
        },
        {
            "bufferView" : 3,
            "componentType" : 5123,
            "count" : 1428,
            "type" : "SCALAR"
        }
    ],
    "bufferViews" : [
        {
            "buffer" : 0,
            "byteLength" : 11328,
            "byteOffset" : 0
        },
        {
            "buffer" : 0,
            "byteLength" : 11328,
            "byteOffset" : 11328
        },
        {
            "buffer" : 0,
            "byteLength" : 7552,
            "byteOffset" : 22656
        },
        {
            "buffer" : 0,
            "byteLength" : 2856,
            "byteOffset" : 30208
        }
    ],
    "buffers" : [
        {
            "byteLength" : 33064,
            "uri" : "data:application/octet-stream;base64,"
        }
    ]
}
