{
    "asset" : {
        "generator" : "Khronos glTF Blender I/O v1.8.19",
        "version" : "2.0"
    },
    "scene" : 0,
    "scenes" : [
        {
            "name" : "Scene",
            "nodes" : [
                0,
                1,
                2,
                3,
                4,
                5,
                6,
                7,
                8,
                9
            ]
        }
    ],
    "nodes" : [
        {
            "mesh" : 0,
            "name" : "Plane.004",
            "rotation" : [
                0,
                -1,
                0,
                -1.6292068494294654e-07
            ],
            "scale" : [
                0.5463603734970093,
                0.03341633826494217,
                0.03341633826494217
            ],
            "translation" : [
                0.021579742431640625,
                0.00012528733350336552,
                0.12379465252161026
            ]
        },
        {
            "mesh" : 1,
            "name" : "Plane.005",
            "rotation" : [
                0,
                -0.7071068286895752,
                0,
                -0.7071068286895752
            ],
            "scale" : [
                0.25980037450790405,
                0.03341633826494217,
                0.03341633826494217
            ],
            "translation" : [
                -0.49144816398620605,
                0.00012528733350336552,
                -0.16918453574180603
            ]
        },
        {
            "mesh" : 2,
            "name" : "Plane.006",
            "rotation" : [
                0,
                -1,
                0,
                -1.6292068494294654e-07
            ],
            "scale" : [
                0.5463603734970093,
                0.03341633826494217,
                0.03341633826494217
            ],
            "translation" : [
                0.021579742431640625,
                0.00012528733350336552,
                -0.3960675895214081
            ]
        },
        {
            "mesh" : 3,
            "name" : "Plane.007",
            "rotation" : [
                0,
                -0.7071068286895752,
                0,
                -0.7071068286895752
            ],
            "scale" : [
                0.25980037450790405,
                0.03341633826494217,
                0.03341633826494217
            ],
            "translation" : [
                0.5343612432479858,
                0.00012528733350336552,
                -0.16918446123600006
            ]
        },
        {
            "mesh" : 4,
            "name" : "Plane.008",
            "rotation" : [
                0,
                -0.7071068286895752,
                0,
                -0.7071068286895752
            ],
            "scale" : [
                0.10493507236242294,
                0.03341633826494217,
                0.03341633826494217
            ],
            "translation" : [
                0.5345149040222168,
                0.00012528733350336552,
                0.2617455720901489
            ]
        },
        {
            "mesh" : 5,
            "name" : "Plane.009",
            "rotation" : [
                0,
                -1,
                0,
                -1.6292068494294654e-07
            ],
            "scale" : [
                0.4953455924987793,
                0.03341633826494217,
                0.03341633826494217
            ],
            "translation" : [
                0.023010849952697754,
                0.00012528733350336552,
                0.38372576236724854
            ]
        },
        {
            "mesh" : 6,
            "name" : "Plane.010",
            "rotation" : [
                0,
                -0.7071068286895752,
                0,
                -0.7071068286895752
            ],
            "scale" : [
                0.10493507236242294,
                0.03341633826494217,
                0.03341633826494217
            ],
            "translation" : [
                -0.4919412136077881,
                0.00012528733350336552,
                0.26174551248550415
            ]
        },
        {
            "mesh" : 7,
            "name" : "Plane.011",
            "rotation" : [
                0,
                -0.7071068286895752,
                0,
                -0.7071068286895752
            ],
            "scale" : [
                0.08195794373750687,
                0.03341633826494217,
                0.024985890835523605
            ],
            "translation" : [
                0.11174416542053223,
                0.00012528733350336552,
                0.008649603463709354
            ]
        },
        {
            "mesh" : 8,
            "name" : "Plane.012",
            "rotation" : [
                0,
                -0.7071068286895752,
                0,
                -0.7071068286895752
            ],
            "scale" : [
                0.08195794373750687,
                0.03341633826494217,
                0.024985890835523605
            ],
            "translation" : [
                -0.06650495529174805,
                0.00012528733350336552,
                0.008649584837257862
            ]
        },
        {
            "mesh" : 9,
            "name" : "Plane.013",
            "rotation" : [
                0,
                0,
                0,
                -1
            ],
            "scale" : [
                0.09520906209945679,
                0.03341633826494217,
                0.024985890835523605
            ],
            "translation" : [
                0.020768165588378906,
                0.00012528733350336552,
                -0.09835619479417801
            ]
        }
    ],
    "materials" : [
        {
            "doubleSided" : true,
            "name" : "White",
            "pbrMetallicRoughness" : {
                "baseColorFactor" : [
                    0.9999988079071045,
                    0.9999989867210388,
                    1,
                    1
                ],
                "metallicFactor" : 0
            }
        }
    ],
    "meshes" : [
        {
            "name" : "Plane.005",
            "primitives" : [
                {
                    "attributes" : {
                        "POSITION" : 0,
                        "NORMAL" : 1,
                        "TEXCOORD_0" : 2
                    },
                    "indices" : 3,
                    "material" : 0
                }
            ]
        },
        {
            "name" : "Plane.006",
            "primitives" : [
                {
                    "attributes" : {
                        "POSITION" : 4,
                        "NORMAL" : 5,
                        "TEXCOORD_0" : 6
                    },
                    "indices" : 3,
                    "material" : 0
                }
            ]
        },
        {
            "name" : "Plane.007",
            "primitives" : [
                {
                    "attributes" : {
                        "POSITION" : 7,
                        "NORMAL" : 8,
                        "TEXCOORD_0" : 9
                    },
                    "indices" : 3,
                    "material" : 0
                }
            ]
        },
        {
            "name" : "Plane.008",
            "primitives" : [
                {
                    "attributes" : {
                        "POSITION" : 10,
                        "NORMAL" : 11,
                        "TEXCOORD_0" : 12
                    },
                    "indices" : 3,
                    "material" : 0
                }
            ]
        },
        {
            "name" : "Plane.009",
            "primitives" : [
                {
                    "attributes" : {
                        "POSITION" : 13,
                        "NORMAL" : 14,
                        "TEXCOORD_0" : 15
                    },
                    "indices" : 3,
                    "material" : 0
                }
            ]
        },
        {
            "name" : "Plane.010",
            "primitives" : [
                {
                    "attributes" : {
                        "POSITION" : 16,
                        "NORMAL" : 17,
                        "TEXCOORD_0" : 18
                    },
                    "indices" : 3,
                    "material" : 0
                }
            ]
        },
        {
            "name" : "Plane.011",
            "primitives" : [
                {
                    "attributes" : {
                        "POSITION" : 19,
                        "NORMAL" : 20,
                        "TEXCOORD_0" : 21
                    },
                    "indices" : 3,
                    "material" : 0
                }
            ]
        },
        {
            "name" : "Plane.012",
            "primitives" : [
                {
                    "attributes" : {
                        "POSITION" : 22,
                        "NORMAL" : 23,
                        "TEXCOORD_0" : 24
                    },
                    "indices" : 3,
                    "material" : 0
                }
            ]
        },
        {
            "name" : "Plane.013",
            "primitives" : [
                {
                    "attributes" : {
                        "POSITION" : 25,
                        "NORMAL" : 26,
                        "TEXCOORD_0" : 27
                    },
                    "indices" : 3,
                    "material" : 0
                }
            ]
        },
        {
            "name" : "Plane.014",
            "primitives" : [
                {
                    "attributes" : {
                        "POSITION" : 28,
                        "NORMAL" : 29,
                        "TEXCOORD_0" : 30
                    },
                    "indices" : 3,
                    "material" : 0
                }
            ]
        }
    ],
    "accessors" : [
        {
            "bufferView" : 0,
            "componentType" : 5126,
            "count" : 60,
            "max" : [
                1,
                0.15000000596046448,
                1
            ],
            "min" : [
                -1,
                0,
                -1
            ],
            "type" : "VEC3"
        },
        {
            "bufferView" : 1,
            "componentType" : 5126,
            "count" : 60,
            "type" : "VEC3"
        },
        {
            "bufferView" : 2,
            "componentType" : 5126,
            "count" : 60,
            "type" : "VEC2"
        },
        {
            "bufferView" : 3,
            "componentType" : 5123,
            "count" : 132,
            "type" : "SCALAR"
        },
        {
            "bufferView" : 4,
            "componentType" : 5126,
            "count" : 60,
            "max" : [
                1,
                0.15000000596046448,
                1
            ],
            "min" : [
                -1,
                0,
                -1
            ],
            "type" : "VEC3"
        },
        {
            "bufferView" : 5,
            "componentType" : 5126,
            "count" : 60,
            "type" : "VEC3"
        },
        {
            "bufferView" : 6,
            "componentType" : 5126,
            "count" : 60,
            "type" : "VEC2"
        },
        {
            "bufferView" : 7,
            "componentType" : 5126,
            "count" : 60,
            "max" : [
                1,
                0.15000000596046448,
                1
            ],
            "min" : [
                -1,
                0,
                -1
            ],
            "type" : "VEC3"
        },
        {
            "bufferView" : 8,
            "componentType" : 5126,
            "count" : 60,
            "type" : "VEC3"
        },
        {
            "bufferView" : 9,
            "componentType" : 5126,
            "count" : 60,
            "type" : "VEC2"
        },
        {
            "bufferView" : 10,
            "componentType" : 5126,
            "count" : 60,
            "max" : [
                1,
                0.15000000596046448,
                1
            ],
            "min" : [
                -1,
                0,
                -1
            ],
            "type" : "VEC3"
        },
        {
            "bufferView" : 11,
            "componentType" : 5126,
            "count" : 60,
            "type" : "VEC3"
        },
        {
            "bufferView" : 12,
            "componentType" : 5126,
            "count" : 60,
            "type" : "VEC2"
        },
        {
            "bufferView" : 13,
            "componentType" : 5126,
            "count" : 60,
            "max" : [
                1,
                0.15000000596046448,
                1
            ],
            "min" : [
                -1,
                0,
                -1
            ],
            "type" : "VEC3"
        },
        {
            "bufferView" : 14,
            "componentType" : 5126,
            "count" : 60,
            "type" : "VEC3"
        },
        {
            "bufferView" : 15,
            "componentType" : 5126,
            "count" : 60,
            "type" : "VEC2"
        },
        {
            "bufferView" : 16,
            "componentType" : 5126,
            "count" : 60,
            "max" : [
                1,
                0.15000000596046448,
                1
            ],
            "min" : [
                -1,
                0,
                -1
            ],
            "type" : "VEC3"
        },
        {
            "bufferView" : 17,
            "componentType" : 5126,
            "count" : 60,
            "type" : "VEC3"
        },
        {
            "bufferView" : 18,
            "componentType" : 5126,
            "count" : 60,
            "type" : "VEC2"
        },
        {
            "bufferView" : 19,
            "componentType" : 5126,
            "count" : 60,
            "max" : [
                1,
                0.15000000596046448,
                1
            ],
            "min" : [
                -1,
                0,
                -1
            ],
            "type" : "VEC3"
        },
        {
            "bufferView" : 20,
            "componentType" : 5126,
            "count" : 60,
            "type" : "VEC3"
        },
        {
            "bufferView" : 21,
            "componentType" : 5126,
            "count" : 60,
            "type" : "VEC2"
        },
        {
            "bufferView" : 22,
            "componentType" : 5126,
            "count" : 60,
            "max" : [
                1,
                0.15000000596046448,
                1
            ],
            "min" : [
                -1,
                0,
                -1
            ],
            "type" : "VEC3"
        },
        {
            "bufferView" : 23,
            "componentType" : 5126,
            "count" : 60,
            "type" : "VEC3"
        },
        {
            "bufferView" : 24,
            "componentType" : 5126,
            "count" : 60,
            "type" : "VEC2"
        },
        {
            "bufferView" : 25,
            "componentType" : 5126,
            "count" : 60,
            "max" : [
                1,
                0.15000000596046448,
                1
            ],
            "min" : [
                -1,
                0,
                -1
            ],
            "type" : "VEC3"
        },
        {
            "bufferView" : 26,
            "componentType" : 5126,
            "count" : 60,
            "type" : "VEC3"
        },
        {
            "bufferView" : 27,
            "componentType" : 5126,
            "count" : 60,
            "type" : "VEC2"
        },
        {
            "bufferView" : 28,
            "componentType" : 5126,
            "count" : 60,
            "max" : [
                1,
                0.15000000596046448,
                1
            ],
            "min" : [
                -1,
                0,
                -1
            ],
            "type" : "VEC3"
        },
        {
            "bufferView" : 29,
            "componentType" : 5126,
            "count" : 60,
            "type" : "VEC3"
        },
        {
            "bufferView" : 30,
            "componentType" : 5126,
            "count" : 60,
            "type" : "VEC2"
        }
    ],
    "bufferViews" : [
        {
            "buffer" : 0,
            "byteLength" : 720,
            "byteOffset" : 0
        },
        {
            "buffer" : 0,
            "byteLength" : 720,
            "byteOffset" : 720
        },
        {
            "buffer" : 0,
            "byteLength" : 480,
            "byteOffset" : 1440
        },
        {
            "buffer" : 0,
            "byteLength" : 264,
            "byteOffset" : 1920
        },
        {
            "buffer" : 0,
            "byteLength" : 720,
            "byteOffset" : 2184
        },
        {
            "buffer" : 0,
            "byteLength" : 720,
            "byteOffset" : 2904
        },
        {
            "buffer" : 0,
            "byteLength" : 480,
            "byteOffset" : 3624
        },
        {
            "buffer" : 0,
            "byteLength" : 720,
            "byteOffset" : 4104
        },
        {
            "buffer" : 0,
            "byteLength" : 720,
            "byteOffset" : 4824
        },
        {
            "buffer" : 0,
            "byteLength" : 480,
            "byteOffset" : 5544
        },
        {
            "buffer" : 0,
            "byteLength" : 720,
            "byteOffset" : 6024
        },
        {
            "buffer" : 0,
            "byteLength" : 720,
            "byteOffset" : 6744
        },
        {
            "buffer" : 0,
            "byteLength" : 480,
            "byteOffset" : 7464
        },
        {
            "buffer" : 0,
            "byteLength" : 720,
            "byteOffset" : 7944
        },
        {
            "buffer" : 0,
            "byteLength" : 720,
            "byteOffset" : 8664
        },
        {
            "buffer" : 0,
            "byteLength" : 480,
            "byteOffset" : 9384
        },
        {
            "buffer" : 0,
            "byteLength" : 720,
            "byteOffset" : 9864
        },
        {
            "buffer" : 0,
            "byteLength" : 720,
            "byteOffset" : 10584
        },
        {
            "buffer" : 0,
            "byteLength" : 480,
            "byteOffset" : 11304
        },
        {
            "buffer" : 0,
            "byteLength" : 720,
            "byteOffset" : 11784
        },
        {
            "buffer" : 0,
            "byteLength" : 720,
            "byteOffset" : 12504
        },
        {
            "buffer" : 0,
            "byteLength" : 480,
            "byteOffset" : 13224
        },
        {
            "buffer" : 0,
            "byteLength" : 720,
            "byteOffset" : 13704
        },
        {
            "buffer" : 0,
            "byteLength" : 720,
            "byteOffset" : 14424
        },
        {
            "buffer" : 0,
            "byteLength" : 480,
            "byteOffset" : 15144
        },
        {
            "buffer" : 0,
            "byteLength" : 720,
            "byteOffset" : 15624
        },
        {
            "buffer" : 0,
            "byteLength" : 720,
            "byteOffset" : 16344
        },
        {
            "buffer" : 0,
            "byteLength" : 480,
            "byteOffset" : 17064
        },
        {
            "buffer" : 0,
            "byteLength" : 720,
            "byteOffset" : 17544
        },
        {
            "buffer" : 0,
            "byteLength" : 720,
            "byteOffset" : 18264
        },
        {
            "buffer" : 0,
            "byteLength" : 480,
            "byteOffset" : 18984
        }
    ],
    "buffers" : [
        {
            "byteLength" : 19464,
            "uri" : "data:application/octet-stream;base64,"
        }
    ]
}
