{
    "asset" : {
        "generator" : "Khronos glTF Blender I/O v1.8.19",
        "version" : "2.0"
    },
    "scene" : 0,
    "scenes" : [
        {
            "name" : "Scene",
            "nodes" : [
                0
            ]
        }
    ],
    "nodes" : [
        {
            "mesh" : 0,
            "name" : "Cube.098",
            "scale" : [
                0.10000000149011612,
                0.10000000149011612,
                0.10000000149011612
            ],
            "translation" : [
                0.01671278476715088,
                0.04321999475359917,
                0
            ]
        }
    ],
    "materials" : [
        {
            "doubleSided" : true,
            "name" : "wall.001",
            "pbrMetallicRoughness" : {
                "baseColorFactor" : [
                    1,
                    0.8962687849998474,
                    0.6104958057403564,
                    1
                ],
                "metallicFactor" : 0,
                "roughnessFactor" : 0.5
            }
        },
        {
            "doubleSided" : true,
            "name" : "roof",
            "pbrMetallicRoughness" : {
                "baseColorFactor" : [
                    0.40197741985321045,
                    0.5028862357139587,
                    0.0544804185628891,
                    1
                ],
                "metallicFactor" : 0,
                "roughnessFactor" : 0.5
            }
        }
    ],
    "meshes" : [
        {
            "name" : "Cube.050",
            "primitives" : [
                {
                    "attributes" : {
                        "POSITION" : 0,
                        "NORMAL" : 1,
                        "TEXCOORD_0" : 2
                    },
                    "indices" : 3,
                    "material" : 0
                },
                {
                    "attributes" : {
                        "POSITION" : 4,
                        "NORMAL" : 5,
                        "TEXCOORD_0" : 6
                    },
                    "indices" : 7,
                    "material" : 1
                }
            ]
        }
    ],
    "accessors" : [
        {
            "bufferView" : 0,
            "componentType" : 5126,
            "count" : 107,
            "max" : [
                1.1836683750152588,
                2.0602176189422607,
                1.1095008850097656
            ],
            "min" : [
                -1.1836683750152588,
                -0.4124363660812378,
                -1.1095008850097656
            ],
            "type" : "VEC3"
        },
        {
            "bufferView" : 1,
            "componentType" : 5126,
            "count" : 107,
            "type" : "VEC3"
        },
        {
            "bufferView" : 2,
            "componentType" : 5126,
            "count" : 107,
            "type" : "VEC2"
        },
        {
            "bufferView" : 3,
            "componentType" : 5123,
            "count" : 222,
            "type" : "SCALAR"
        },
        {
            "bufferView" : 4,
            "componentType" : 5126,
            "count" : 120,
            "max" : [
                1.1836683750152588,
                2.0602176189422607,
                1.1095008850097656
            ],
            "min" : [
                -1.1836683750152588,
                0.8536385893821716,
                -1.1095008850097656
            ],
            "type" : "VEC3"
        },
        {
            "bufferView" : 5,
            "componentType" : 5126,
            "count" : 120,
            "type" : "VEC3"
        },
        {
            "bufferView" : 6,
            "componentType" : 5126,
            "count" : 120,
            "type" : "VEC2"
        },
        {
            "bufferView" : 7,
            "componentType" : 5123,
            "count" : 198,
            "type" : "SCALAR"
        }
    ],
    "bufferViews" : [
        {
            "buffer" : 0,
            "byteLength" : 1284,
            "byteOffset" : 0
        },
        {
            "buffer" : 0,
            "byteLength" : 1284,
            "byteOffset" : 1284
        },
        {
            "buffer" : 0,
            "byteLength" : 856,
            "byteOffset" : 2568
        },
        {
            "buffer" : 0,
            "byteLength" : 444,
            "byteOffset" : 3424
        },
        {
            "buffer" : 0,
            "byteLength" : 1440,
            "byteOffset" : 3868
        },
        {
            "buffer" : 0,
            "byteLength" : 1440,
            "byteOffset" : 5308
        },
        {
            "buffer" : 0,
            "byteLength" : 960,
            "byteOffset" : 6748
        },
        {
            "buffer" : 0,
            "byteLength" : 396,
            "byteOffset" : 7708
        }
    ],
    "buffers" : [
        {
            "byteLength" : 8104,
            "uri" : "data:application/octet-stream;base64,"
        }
    ]
}
