{
    "asset" : {
        "generator" : "Khronos glTF Blender I/O v1.8.19",
        "version" : "2.0"
    },
    "scene" : 0,
    "scenes" : [
        {
            "name" : "Scene",
            "nodes" : [
                0
            ]
        }
    ],
    "nodes" : [
        {
            "mesh" : 0,
            "name" : "detail_treeA.001",
            "rotation" : [
                0.7071068286895752,
                0,
                0,
                0.7071067094802856
            ],
            "scale" : [
                0.20000000298023224,
                0.20000000298023224,
                0.20000000298023224
            ]
        }
    ],
    "materials" : [
        {
            "doubleSided" : true,
            "name" : "BrownDark.056",
            "pbrMetallicRoughness" : {
                "baseColorFactor" : [
                    0.32694560289382935,
                    0.10152623057365417,
                    0.05927089974284172,
                    1
                ],
                "metallicFactor" : 0,
                "roughnessFactor" : 0.4000000059604645
            }
        },
        {
            "doubleSided" : true,
            "name" : "GreenDark.013",
            "pbrMetallicRoughness" : {
                "baseColorFactor" : [
                    0.4396565854549408,
                    0.8307693600654602,
                    0.11697088181972504,
                    1
                ],
                "metallicFactor" : 0,
                "roughnessFactor" : 0.4000000059604645
            }
        }
    ],
    "meshes" : [
        {
            "name" : "Cube.006",
            "primitives" : [
                {
                    "attributes" : {
                        "POSITION" : 0,
                        "NORMAL" : 1,
                        "TEXCOORD_0" : 2
                    },
                    "indices" : 3,
                    "material" : 0
                },
                {
                    "attributes" : {
                        "POSITION" : 4,
                        "NORMAL" : 5,
                        "TEXCOORD_0" : 6
                    },
                    "indices" : 7,
                    "material" : 1
                }
            ]
        }
    ],
    "accessors" : [
        {
            "bufferView" : 0,
            "componentType" : 5126,
            "count" : 89,
            "max" : [
                0.16477148234844208,
                0.07413199543952942,
                1.440661545615285e-08
            ],
            "min" : [
                -0.14181984961032867,
                -0.08541049063205719,
                -0.45478323101997375
            ],
            "type" : "VEC3"
        },
        {
            "bufferView" : 1,
            "componentType" : 5126,
            "count" : 89,
            "type" : "VEC3"
        },
        {
            "bufferView" : 2,
            "componentType" : 5126,
            "count" : 89,
            "type" : "VEC2"
        },
        {
            "bufferView" : 3,
            "componentType" : 5123,
            "count" : 351,
            "type" : "SCALAR"
        },
        {
            "bufferView" : 4,
            "componentType" : 5126,
            "count" : 120,
            "max" : [
                0.3212660551071167,
                0.19653400778770447,
                -0.3315035402774811
            ],
            "min" : [
                -0.2724704444408417,
                -0.19510294497013092,
                -0.7803274989128113
            ],
            "type" : "VEC3"
        },
        {
            "bufferView" : 5,
            "componentType" : 5126,
            "count" : 120,
            "type" : "VEC3"
        },
        {
            "bufferView" : 6,
            "componentType" : 5126,
            "count" : 120,
            "type" : "VEC2"
        },
        {
            "bufferView" : 7,
            "componentType" : 5123,
            "count" : 510,
            "type" : "SCALAR"
        }
    ],
    "bufferViews" : [
        {
            "buffer" : 0,
            "byteLength" : 1068,
            "byteOffset" : 0
        },
        {
            "buffer" : 0,
            "byteLength" : 1068,
            "byteOffset" : 1068
        },
        {
            "buffer" : 0,
            "byteLength" : 712,
            "byteOffset" : 2136
        },
        {
            "buffer" : 0,
            "byteLength" : 702,
            "byteOffset" : 2848
        },
        {
            "buffer" : 0,
            "byteLength" : 1440,
            "byteOffset" : 3552
        },
        {
            "buffer" : 0,
            "byteLength" : 1440,
            "byteOffset" : 4992
        },
        {
            "buffer" : 0,
            "byteLength" : 960,
            "byteOffset" : 6432
        },
        {
            "buffer" : 0,
            "byteLength" : 1020,
            "byteOffset" : 7392
        }
    ],
    "buffers" : [
        {
            "byteLength" : 8412,
            "uri" : "data:application/octet-stream;base64,"
        }
    ]
}
