{
    "asset" : {
        "generator" : "Khronos glTF Blender I/O v1.8.19",
        "version" : "2.0"
    },
    "scene" : 0,
    "scenes" : [
        {
            "name" : "Scene",
            "nodes" : [
                0
            ]
        }
    ],
    "nodes" : [
        {
            "mesh" : 0,
            "name" : "detail_treeC.001",
            "rotation" : [
                0.7071068286895752,
                0,
                0,
                0.7071067094802856
            ],
            "scale" : [
                0.20000000298023224,
                0.20000000298023224,
                0.20000000298023224
            ]
        }
    ],
    "materials" : [
        {
            "doubleSided" : true,
            "name" : "BrownDark.001",
            "pbrMetallicRoughness" : {
                "baseColorFactor" : [
                    0.32694560289382935,
                    0.10152623057365417,
                    0.05927089974284172,
                    1
                ],
                "metallicFactor" : 0,
                "roughnessFactor" : 0.4000000059604645
            }
        },
        {
            "doubleSided" : true,
            "name" : "GreenDark.011",
            "pbrMetallicRoughness" : {
                "baseColorFactor" : [
                    0.4396565854549408,
                    0.8307693600654602,
                    0.11697088181972504,
                    1
                ],
                "metallicFactor" : 0,
                "roughnessFactor" : 0.4000000059604645
            }
        }
    ],
    "meshes" : [
        {
            "name" : "Cube.005",
            "primitives" : [
                {
                    "attributes" : {
                        "POSITION" : 0,
                        "NORMAL" : 1,
                        "TEXCOORD_0" : 2
                    },
                    "indices" : 3,
                    "material" : 0
                },
                {
                    "attributes" : {
                        "POSITION" : 4,
                        "NORMAL" : 5,
                        "TEXCOORD_0" : 6
                    },
                    "indices" : 7,
                    "material" : 1
                }
            ]
        }
    ],
    "accessors" : [
        {
            "bufferView" : 0,
            "componentType" : 5126,
            "count" : 91,
            "max" : [
                0.15411944687366486,
                0.09965212643146515,
                0.000911755720153451
            ],
            "min" : [
                -0.15524083375930786,
                -0.09034993499517441,
                -0.4651607573032379
            ],
            "type" : "VEC3"
        },
        {
            "bufferView" : 1,
            "componentType" : 5126,
            "count" : 91,
            "type" : "VEC3"
        },
        {
            "bufferView" : 2,
            "componentType" : 5126,
            "count" : 91,
            "type" : "VEC2"
        },
        {
            "bufferView" : 3,
            "componentType" : 5123,
            "count" : 351,
            "type" : "SCALAR"
        },
        {
            "bufferView" : 4,
            "componentType" : 5126,
            "count" : 172,
            "max" : [
                0.2587195932865143,
                0.2486431747674942,
                -0.29009827971458435
            ],
            "min" : [
                -0.27688834071159363,
                -0.17305736243724823,
                -0.7565363645553589
            ],
            "type" : "VEC3"
        },
        {
            "bufferView" : 5,
            "componentType" : 5126,
            "count" : 172,
            "type" : "VEC3"
        },
        {
            "bufferView" : 6,
            "componentType" : 5126,
            "count" : 172,
            "type" : "VEC2"
        },
        {
            "bufferView" : 7,
            "componentType" : 5123,
            "count" : 660,
            "type" : "SCALAR"
        }
    ],
    "bufferViews" : [
        {
            "buffer" : 0,
            "byteLength" : 1092,
            "byteOffset" : 0
        },
        {
            "buffer" : 0,
            "byteLength" : 1092,
            "byteOffset" : 1092
        },
        {
            "buffer" : 0,
            "byteLength" : 728,
            "byteOffset" : 2184
        },
        {
            "buffer" : 0,
            "byteLength" : 702,
            "byteOffset" : 2912
        },
        {
            "buffer" : 0,
            "byteLength" : 2064,
            "byteOffset" : 3616
        },
        {
            "buffer" : 0,
            "byteLength" : 2064,
            "byteOffset" : 5680
        },
        {
            "buffer" : 0,
            "byteLength" : 1376,
            "byteOffset" : 7744
        },
        {
            "buffer" : 0,
            "byteLength" : 1320,
            "byteOffset" : 9120
        }
    ],
    "buffers" : [
        {
            "byteLength" : 10440,
            "uri" : "data:application/octet-stream;base64,"
        }
    ]
}
