{
    "asset" : {
        "generator" : "Khronos glTF Blender I/O v1.8.19",
        "version" : "2.0"
    },
    "scene" : 0,
    "scenes" : [
        {
            "name" : "Scene",
            "nodes" : [
                4
            ]
        }
    ],
    "nodes" : [
        {
            "mesh" : 0,
            "name" : "giraffe_cube001_0",
            "scale" : [
                1.7329825162887573,
                1.7329822778701782,
                1.7329825162887573
            ],
            "translation" : [
                10.863578796386719,
                202.49264526367188,
                -2895.129150390625
            ]
        },
        {
            "children" : [
                0
            ],
            "name" : "giraffe",
            "translation" : [
                -3.444342613220215,
                -7.606245040893555,
                -0.042827509343624115
            ]
        },
        {
            "children" : [
                1
            ],
            "name" : "RootNode"
        },
        {
            "children" : [
                2
            ],
            "name" : "giraffe.fbx",
            "rotation" : [
                0.7071068286895752,
                0,
                0,
                0.7071068286895752
            ]
        },
        {
            "children" : [
                3
            ],
            "name" : "Sketchfab_model.003",
            "rotation" : [
                -0.7071059346199036,
                0.0011048732558265328,
                0.0011048732558265328,
                0.7071059346199036
            ],
            "scale" : [
                0.009596273303031921,
                0.009596276096999645,
                0.009596276096999645
            ],
            "translation" : [
                -0.30407047271728516,
                2.7928404808044434,
                27.770477294921875
            ]
        }
    ],
    "materials" : [
        {
            "doubleSided" : true,
            "name" : "cube001",
            "pbrMetallicRoughness" : {
                "baseColorTexture" : {
                    "index" : 0
                },
                "metallicFactor" : 0,
                "roughnessFactor" : 0.8614359498023987
            }
        }
    ],
    "meshes" : [
        {
            "name" : "giraffe_cube001_0",
            "primitives" : [
                {
                    "attributes" : {
                        "POSITION" : 0,
                        "NORMAL" : 1,
                        "TEXCOORD_0" : 2
                    },
                    "indices" : 3,
                    "material" : 0
                }
            ]
        }
    ],
    "textures" : [
        {
            "sampler" : 0,
            "source" : 0
        }
    ],
    "images" : [
        {
            "bufferView" : 4,
            "mimeType" : "image/png",
            "name" : "cube001_baseColor"
        }
    ],
    "accessors" : [
        {
            "bufferView" : 0,
            "componentType" : 5126,
            "count" : 1595,
            "max" : [
                216.62330627441406,
                277.48809814453125,
                120.06098937988281
            ],
            "min" : [
                -259.4844055175781,
                -274.9911804199219,
                -119.93901824951172
            ],
            "type" : "VEC3"
        },
        {
            "bufferView" : 1,
            "componentType" : 5126,
            "count" : 1595,
            "type" : "VEC3"
        },
        {
            "bufferView" : 2,
            "componentType" : 5126,
            "count" : 1595,
            "type" : "VEC2"
        },
        {
            "bufferView" : 3,
            "componentType" : 5123,
            "count" : 2817,
            "type" : "SCALAR"
        }
    ],
    "bufferViews" : [
        {
            "buffer" : 0,
            "byteLength" : 19140,
            "byteOffset" : 0
        },
        {
            "buffer" : 0,
            "byteLength" : 19140,
            "byteOffset" : 19140
        },
        {
            "buffer" : 0,
            "byteLength" : 12760,
            "byteOffset" : 38280
        },
        {
            "buffer" : 0,
            "byteLength" : 5634,
            "byteOffset" : 51040
        },
        {
            "buffer" : 0,
            "byteLength" : 2542,
            "byteOffset" : 56676
        }
    ],
    "samplers" : [
        {
            "magFilter" : 9729,
            "minFilter" : 9987
        }
    ],
    "buffers" : [
        {
            "byteLength" : 59220,
            "uri" : "data:application/octet-stream;base64,"
        }
    ]
}
