{
    "asset" : {
        "generator" : "Khronos glTF Blender I/O v1.8.19",
        "version" : "2.0"
    },
    "scene" : 0,
    "scenes" : [
        {
            "name" : "Scene",
            "nodes" : [
                2
            ]
        }
    ],
    "nodes" : [
        {
            "mesh" : 0,
            "name" : "Object_2.002",
            "rotation" : [
                0,
                0,
                1,
                2.6618741685524583e-05
            ],
            "scale" : [
                2.538381576538086,
                2.538381576538086,
                2.538381576538086
            ],
            "translation" : [
                1.6078251600265503,
                1.5859394073486328,
                -3.0452675819396973
            ]
        },
        {
            "children" : [
                0
            ],
            "name" : "MrPig.obj.cleaner.materialmerger.gles"
        },
        {
            "children" : [
                1
            ],
            "name" : "Sketchfab_model.005",
            "rotation" : [
                -0.50018310546875,
                -0.49981689453125,
                -0.49981689453125,
                0.50018310546875
            ],
            "scale" : [
                3.0751473903656006,
                3.0751476287841797,
                3.0751476287841797
            ],
            "translation" : [
                -1.673912525177002,
                -6.136047840118408,
                -1.360904574394226
            ]
        }
    ],
    "materials" : [
        {
            "doubleSided" : true,
            "name" : "palette.001",
            "pbrMetallicRoughness" : {
                "baseColorTexture" : {
                    "index" : 0
                },
                "metallicFactor" : 0
            }
        }
    ],
    "meshes" : [
        {
            "name" : "Object_0.005",
            "primitives" : [
                {
                    "attributes" : {
                        "POSITION" : 0,
                        "NORMAL" : 1,
                        "TEXCOORD_0" : 2
                    },
                    "indices" : 3,
                    "material" : 0
                }
            ]
        }
    ],
    "textures" : [
        {
            "sampler" : 0,
            "source" : 0
        }
    ],
    "images" : [
        {
            "bufferView" : 4,
            "mimeType" : "image/png",
            "name" : "palette_baseColor"
        }
    ],
    "accessors" : [
        {
            "bufferView" : 0,
            "componentType" : 5126,
            "count" : 637,
            "max" : [
                0.8999999761581421,
                1.2000000476837158,
                3
            ],
            "min" : [
                0,
                0,
                2
            ],
            "type" : "VEC3"
        },
        {
            "bufferView" : 1,
            "componentType" : 5126,
            "count" : 637,
            "type" : "VEC3"
        },
        {
            "bufferView" : 2,
            "componentType" : 5126,
            "count" : 637,
            "type" : "VEC2"
        },
        {
            "bufferView" : 3,
            "componentType" : 5123,
            "count" : 984,
            "type" : "SCALAR"
        }
    ],
    "bufferViews" : [
        {
            "buffer" : 0,
            "byteLength" : 7644,
            "byteOffset" : 0
        },
        {
            "buffer" : 0,
            "byteLength" : 7644,
            "byteOffset" : 7644
        },
        {
            "buffer" : 0,
            "byteLength" : 5096,
            "byteOffset" : 15288
        },
        {
            "buffer" : 0,
            "byteLength" : 1968,
            "byteOffset" : 20384
        },
        {
            "buffer" : 0,
            "byteLength" : 117,
            "byteOffset" : 22352
        }
    ],
    "samplers" : [
        {
            "magFilter" : 9729,
            "minFilter" : 9987
        }
    ],
    "buffers" : [
        {
            "byteLength" : 22472,
            "uri" : "data:application/octet-stream;base64,"
        }
    ]
}
