{
    "asset" : {
        "generator" : "Khronos glTF Blender I/O v1.8.19",
        "version" : "2.0"
    },
    "scene" : 0,
    "scenes" : [
        {
            "name" : "Scene",
            "nodes" : [
                0
            ]
        }
    ],
    "nodes" : [
        {
            "mesh" : 0,
            "name" : "house.001",
            "rotation" : [
                0.7071068286895752,
                0,
                0,
                0.7071067094802856
            ],
            "scale" : [
                0.20000000298023224,
                0.20000000298023224,
                0.20000000298023224
            ]
        }
    ],
    "materials" : [
        {
            "doubleSided" : true,
            "name" : "Beige.044",
            "pbrMetallicRoughness" : {
                "baseColorFactor" : [
                    0.7029160857200623,
                    0.4253237545490265,
                    0.20689357817173004,
                    1
                ],
                "metallicFactor" : 0,
                "roughnessFactor" : 0.5
            }
        },
        {
            "doubleSided" : true,
            "name" : "Stone.010",
            "pbrMetallicRoughness" : {
                "baseColorFactor" : [
                    0.1923278123140335,
                    0.22819341719150543,
                    0.24619518220424652,
                    1
                ],
                "metallicFactor" : 0,
                "roughnessFactor" : 0.4000000059604645
            }
        },
        {
            "doubleSided" : true,
            "name" : "White.003",
            "pbrMetallicRoughness" : {
                "baseColorFactor" : [
                    0.799102783203125,
                    0.799102783203125,
                    0.799102783203125,
                    1
                ],
                "metallicFactor" : 0,
                "roughnessFactor" : 0.4000000059604645
            }
        },
        {
            "doubleSided" : true,
            "name" : "BrownDark.061",
            "pbrMetallicRoughness" : {
                "baseColorFactor" : [
                    0.32694560289382935,
                    0.10152623057365417,
                    0.05927089974284172,
                    1
                ],
                "metallicFactor" : 0,
                "roughnessFactor" : 0.4000000059604645
            }
        },
        {
            "doubleSided" : true,
            "name" : "Brown.036",
            "pbrMetallicRoughness" : {
                "baseColorFactor" : [
                    0.5778115391731262,
                    0.23347531259059906,
                    0.11534765362739563,
                    1
                ],
                "metallicFactor" : 0,
                "roughnessFactor" : 0.5
            }
        }
    ],
    "meshes" : [
        {
            "name" : "Cube.002",
            "primitives" : [
                {
                    "attributes" : {
                        "POSITION" : 0,
                        "NORMAL" : 1,
                        "TEXCOORD_0" : 2
                    },
                    "indices" : 3,
                    "material" : 0
                },
                {
                    "attributes" : {
                        "POSITION" : 4,
                        "NORMAL" : 5,
                        "TEXCOORD_0" : 6
                    },
                    "indices" : 7,
                    "material" : 1
                },
                {
                    "attributes" : {
                        "POSITION" : 8,
                        "NORMAL" : 9,
                        "TEXCOORD_0" : 10
                    },
                    "indices" : 11,
                    "material" : 2
                },
                {
                    "attributes" : {
                        "POSITION" : 12,
                        "NORMAL" : 13,
                        "TEXCOORD_0" : 14
                    },
                    "indices" : 15,
                    "material" : 3
                },
                {
                    "attributes" : {
                        "POSITION" : 16,
                        "NORMAL" : 17,
                        "TEXCOORD_0" : 18
                    },
                    "indices" : 19,
                    "material" : 4
                }
            ]
        }
    ],
    "accessors" : [
        {
            "bufferView" : 0,
            "componentType" : 5126,
            "count" : 42,
            "max" : [
                0.6046053767204285,
                0.83721923828125,
                0.008920181542634964
            ],
            "min" : [
                -0.597845733165741,
                -0.417885959148407,
                -0.007473674602806568
            ],
            "type" : "VEC3"
        },
        {
            "bufferView" : 1,
            "componentType" : 5126,
            "count" : 42,
            "type" : "VEC3"
        },
        {
            "bufferView" : 2,
            "componentType" : 5126,
            "count" : 42,
            "type" : "VEC2"
        },
        {
            "bufferView" : 3,
            "componentType" : 5123,
            "count" : 192,
            "type" : "SCALAR"
        },
        {
            "bufferView" : 4,
            "componentType" : 5126,
            "count" : 538,
            "max" : [
                0.572944700717926,
                0.20708149671554565,
                0
            ],
            "min" : [
                -0.39260390400886536,
                -0.7247492671012878,
                -0.9049292206764221
            ],
            "type" : "VEC3"
        },
        {
            "bufferView" : 5,
            "componentType" : 5126,
            "count" : 538,
            "type" : "VEC3"
        },
        {
            "bufferView" : 6,
            "componentType" : 5126,
            "count" : 538,
            "type" : "VEC2"
        },
        {
            "bufferView" : 7,
            "componentType" : 5123,
            "count" : 1662,
            "type" : "SCALAR"
        },
        {
            "bufferView" : 8,
            "componentType" : 5126,
            "count" : 28,
            "max" : [
                0.2607165277004242,
                0.09837311506271362,
                -0.0660245418548584
            ],
            "min" : [
                -0.26071658730506897,
                -0.6160408854484558,
                -0.6616889238357544
            ],
            "type" : "VEC3"
        },
        {
            "bufferView" : 9,
            "componentType" : 5126,
            "count" : 28,
            "type" : "VEC3"
        },
        {
            "bufferView" : 10,
            "componentType" : 5126,
            "count" : 28,
            "type" : "VEC2"
        },
        {
            "bufferView" : 11,
            "componentType" : 5123,
            "count" : 48,
            "type" : "SCALAR"
        },
        {
            "bufferView" : 12,
            "componentType" : 5126,
            "count" : 1015,
            "max" : [
                0.8436156511306763,
                0.654546320438385,
                0.007756269536912441
            ],
            "min" : [
                -0.8436157703399658,
                -0.6738435626029968,
                -0.48029208183288574
            ],
            "type" : "VEC3"
        },
        {
            "bufferView" : 13,
            "componentType" : 5126,
            "count" : 1015,
            "type" : "VEC3"
        },
        {
            "bufferView" : 14,
            "componentType" : 5126,
            "count" : 1015,
            "type" : "VEC2"
        },
        {
            "bufferView" : 15,
            "componentType" : 5123,
            "count" : 2400,
            "type" : "SCALAR"
        },
        {
            "bufferView" : 16,
            "componentType" : 5126,
            "count" : 218,
            "max" : [
                0.40532058477401733,
                0.30135977268218994,
                -0.35821354389190674
            ],
            "min" : [
                -0.4053206443786621,
                -0.8190275430679321,
                -0.8224505186080933
            ],
            "type" : "VEC3"
        },
        {
            "bufferView" : 17,
            "componentType" : 5126,
            "count" : 218,
            "type" : "VEC3"
        },
        {
            "bufferView" : 18,
            "componentType" : 5126,
            "count" : 218,
            "type" : "VEC2"
        },
        {
            "bufferView" : 19,
            "componentType" : 5123,
            "count" : 696,
            "type" : "SCALAR"
        }
    ],
    "bufferViews" : [
        {
            "buffer" : 0,
            "byteLength" : 504,
            "byteOffset" : 0
        },
        {
            "buffer" : 0,
            "byteLength" : 504,
            "byteOffset" : 504
        },
        {
            "buffer" : 0,
            "byteLength" : 336,
            "byteOffset" : 1008
        },
        {
            "buffer" : 0,
            "byteLength" : 384,
            "byteOffset" : 1344
        },
        {
            "buffer" : 0,
            "byteLength" : 6456,
            "byteOffset" : 1728
        },
        {
            "buffer" : 0,
            "byteLength" : 6456,
            "byteOffset" : 8184
        },
        {
            "buffer" : 0,
            "byteLength" : 4304,
            "byteOffset" : 14640
        },
        {
            "buffer" : 0,
            "byteLength" : 3324,
            "byteOffset" : 18944
        },
        {
            "buffer" : 0,
            "byteLength" : 336,
            "byteOffset" : 22268
        },
        {
            "buffer" : 0,
            "byteLength" : 336,
            "byteOffset" : 22604
        },
        {
            "buffer" : 0,
            "byteLength" : 224,
            "byteOffset" : 22940
        },
        {
            "buffer" : 0,
            "byteLength" : 96,
            "byteOffset" : 23164
        },
        {
            "buffer" : 0,
            "byteLength" : 12180,
            "byteOffset" : 23260
        },
        {
            "buffer" : 0,
            "byteLength" : 12180,
            "byteOffset" : 35440
        },
        {
            "buffer" : 0,
            "byteLength" : 8120,
            "byteOffset" : 47620
        },
        {
            "buffer" : 0,
            "byteLength" : 4800,
            "byteOffset" : 55740
        },
        {
            "buffer" : 0,
            "byteLength" : 2616,
            "byteOffset" : 60540
        },
        {
            "buffer" : 0,
            "byteLength" : 2616,
            "byteOffset" : 63156
        },
        {
            "buffer" : 0,
            "byteLength" : 1744,
            "byteOffset" : 65772
        },
        {
            "buffer" : 0,
            "byteLength" : 1392,
            "byteOffset" : 67516
        }
    ],
    "buffers" : [
        {
            "byteLength" : 68908,
            "uri" : "data:application/octet-stream;base64,"
        }
    ]
}
